<svg xmlns="http://www.w3.org/2000/svg" width="100" height="100" viewBox="0 0 100 100">
  <g id="Grupo_969174" data-name="Grupo 969174" transform="translate(-1253.009 -3883.787)">
    <circle id="Elipse_4735" data-name="Elipse 4735" cx="50" cy="50" r="50" transform="translate(1253.009 3883.787)" fill="#b3eeef"/>
    <g id="Grupo_969117" data-name="Grupo 969117" transform="translate(261.176 -9.891)">
      <g id="Unión_1" data-name="Unión 1" transform="translate(3789.925 -7780.219)" fill="none">
        <path d="M-2748.415,11747.523a4,4,0,0,1-4.188-2.951l-10.352-38.639a4,4,0,0,1,2.827-4.9,4,4,0,0,1,4.9,2.83l6.811,25.423,6.813-25.423a4,4,0,0,1,4.9-2.83,4,4,0,0,1,2.83,4.9l-10.354,38.639a4,4,0,0,1-3.86,2.965C-2748.2,11747.537-2748.306,11747.532-2748.415,11747.523Z" stroke="none"/>
        <path d="M -2748.08935546875 11745.537109375 C -2747.1884765625 11745.537109375 -2746.3955078125 11744.9267578125 -2746.161376953125 11744.0546875 L -2735.806884765625 11705.416015625 C -2735.521484375 11704.3515625 -2736.15771484375 11703.2529296875 -2737.221435546875 11702.966796875 C -2737.39208984375 11702.9208984375 -2737.56640625 11702.8974609375 -2737.739990234375 11702.8974609375 C -2738.642578125 11702.8974609375 -2739.4365234375 11703.5078125 -2739.670654296875 11704.3818359375 L -2748.416015625 11737.0146484375 L -2757.158935546875 11704.3818359375 C -2757.39306640625 11703.5078125 -2758.186767578125 11702.896484375 -2759.089111328125 11702.896484375 C -2759.262939453125 11702.896484375 -2759.43798828125 11702.919921875 -2759.610107421875 11702.9658203125 C -2760.125732421875 11703.1044921875 -2760.556640625 11703.4345703125 -2760.823486328125 11703.8974609375 C -2761.09033203125 11704.3603515625 -2761.1611328125 11704.8994140625 -2761.022705078125 11705.416015625 L -2750.671142578125 11744.0537109375 C -2750.436767578125 11744.9267578125 -2749.64306640625 11745.537109375 -2748.740478515625 11745.537109375 C -2748.6865234375 11745.537109375 -2748.632080078125 11745.5341796875 -2748.57861328125 11745.5302734375 L -2748.416259765625 11745.5166015625 L -2748.25390625 11745.5302734375 C -2748.19482421875 11745.53515625 -2748.139404296875 11745.537109375 -2748.08935546875 11745.537109375 M -2748.08935546875 11747.537109375 C -2748.197265625 11747.537109375 -2748.305908203125 11747.5322265625 -2748.414794921875 11747.5234375 C -2750.306884765625 11747.6806640625 -2752.0947265625 11746.466796875 -2752.602783203125 11744.572265625 L -2762.95458984375 11705.93359375 C -2763.526611328125 11703.7998046875 -2762.26171875 11701.60546875 -2760.127197265625 11701.0341796875 C -2757.99169921875 11700.4638671875 -2755.798583984375 11701.728515625 -2755.22705078125 11703.8642578125 L -2748.415771484375 11729.287109375 L -2741.6025390625 11703.8642578125 C -2741.030517578125 11701.73046875 -2738.837158203125 11700.4609375 -2736.705322265625 11701.0341796875 C -2734.57080078125 11701.6083984375 -2733.302978515625 11703.7998046875 -2733.875 11705.93359375 L -2744.2294921875 11744.572265625 C -2744.708740234375 11746.357421875 -2746.3232421875 11747.537109375 -2748.08935546875 11747.537109375 Z" stroke="none" fill="#a51c36"/>
      </g>
    </g>
  </g>
</svg>
