<svg xmlns="http://www.w3.org/2000/svg" width="100" height="100" viewBox="0 0 100 100">
  <g id="Grupo_80119" data-name="Grupo 80119" transform="translate(-209 -1333)">
    <circle id="Elipse_4717" data-name="Elipse 4717" cx="50" cy="50" r="50" transform="translate(209 1333)" fill="#b3eeef"/>
    <path id="factura" d="M97.436,5.985H81.726a5.056,5.056,0,0,0-9.882,0H56.134a3.532,3.532,0,0,0-3.528,3.528V58.862a3.532,3.532,0,0,0,3.528,3.528h41.3a3.532,3.532,0,0,0,3.528-3.528V9.513a3.532,3.532,0,0,0-3.528-3.528ZM67.9,8.125h4.9a1.07,1.07,0,0,0,1.07-1.07,2.915,2.915,0,1,1,5.831,0,1.07,1.07,0,0,0,1.07,1.07h4.9v3.783H67.9Zm18.838,5.923a1.07,1.07,0,0,0,1.07-1.07V12.13h7.01V50.362H90.006a1.07,1.07,0,0,0-1.07,1.07v4.813H58.751V12.13h7.01v.847a1.07,1.07,0,0,0,1.07,1.07ZM93.306,52.5l-2.23,2.23V52.5Zm5.518,6.36a1.39,1.39,0,0,1-1.388,1.388h-41.3a1.39,1.39,0,0,1-1.388-1.388V9.513a1.39,1.39,0,0,1,1.388-1.388h9.627V9.99h-8.08a1.07,1.07,0,0,0-1.07,1.07V57.314a1.07,1.07,0,0,0,1.07,1.07H90.006a1.07,1.07,0,0,0,.757-.313l5.883-5.883a1.07,1.07,0,0,0,.313-.757V11.06a1.07,1.07,0,0,0-1.07-1.07h-8.08V8.125h9.627a1.39,1.39,0,0,1,1.388,1.388V58.862ZM73.41,27.45a3.148,3.148,0,0,1,2.305-3.029v-.816a1.07,1.07,0,0,1,2.14,0v.772a3.161,3.161,0,0,1,1.9,1.236,1.07,1.07,0,1,1-1.734,1.254,1.009,1.009,0,0,0-.814-.42h-.653a1,1,0,0,0,0,2.007h.464a3.143,3.143,0,0,1,.838,6.172v.816a1.07,1.07,0,1,1-2.14,0V34.67a3.16,3.16,0,0,1-1.9-1.236A1.07,1.07,0,1,1,75.55,32.18a1.009,1.009,0,0,0,.814.42h.653a1,1,0,0,0,0-2.007h-.464A3.147,3.147,0,0,1,73.41,27.45Zm3.375,13.514A11.441,11.441,0,1,0,65.344,29.523,11.454,11.454,0,0,0,76.785,40.965Zm0-20.742a9.3,9.3,0,1,1-9.3,9.3A9.312,9.312,0,0,1,76.785,20.222Zm10.477,29a1.07,1.07,0,0,1-1.07,1.07H67.378a1.07,1.07,0,1,1,0-2.14H86.192A1.07,1.07,0,0,1,87.262,49.222Zm0-4.212a1.07,1.07,0,0,1-1.07,1.07H67.378a1.07,1.07,0,1,1,0-2.14H86.192A1.07,1.07,0,0,1,87.262,45.01Z" transform="translate(182.215 1350.805)" fill="#9f0925"/>
  </g>
</svg>
