<svg xmlns="http://www.w3.org/2000/svg" width="60" height="57.187" viewBox="0 0 60 57.187">
  <g id="salario" transform="translate(0 -12.002)">
    <path id="Trazado_722577" data-name="Trazado 722577" d="M135.371,172.96a.876.876,0,0,0,.623-.259.7.7,0,0,1,.5-.207h0a.7.7,0,0,1,.5.209.879.879,0,1,0,1.243-1.243,2.45,2.45,0,0,0-1.744-.724h0a2.442,2.442,0,0,0-1.74.726.879.879,0,0,0,.623,1.5Z" transform="translate(-118.731 -140.132)" fill="#9f0925"/>
    <path id="Trazado_722578" data-name="Trazado 722578" d="M216.3,172.96a.876.876,0,0,0,.623-.259.7.7,0,0,1,.5-.207h0a.7.7,0,0,1,.5.209.879.879,0,1,0,1.243-1.243,2.45,2.45,0,0,0-1.744-.724h0a2.443,2.443,0,0,0-1.74.726.879.879,0,0,0,.623,1.5Z" transform="translate(-190.176 -140.132)" fill="#9f0925"/>
    <path id="Trazado_722579" data-name="Trazado 722579" d="M153.917,220.9a3.848,3.848,0,0,0,1.454,3.086,4.854,4.854,0,0,0,3.012.989c2.219,0,4.465-1.4,4.465-4.075a1.6,1.6,0,0,0-1.6-1.6h-5.736A1.6,1.6,0,0,0,153.917,220.9Zm7.17.157a2.772,2.772,0,0,1-5.408,0Z" transform="translate(-135.88 -183.006)" fill="#9f0925"/>
    <path id="Trazado_722580" data-name="Trazado 722580" d="M429.879,135.074a.876.876,0,0,0,.622-.258l1.573-1.575v6.954a.879.879,0,0,0,1.758,0V133.24l1.576,1.577a.879.879,0,0,0,1.243-1.243l-3.077-3.078-.03-.027a.877.877,0,0,0-1.214.027h0l-3.074,3.078a.879.879,0,0,0,.622,1.5Z" transform="translate(-378.334 -107.38)" fill="#9f0925"/>
    <path id="Trazado_722652" data-name="Trazado 722652" d="M429.879,135.074a.876.876,0,0,0,.622-.258l1.573-1.575v6.954a.879.879,0,0,0,1.758,0V133.24l1.576,1.577a.879.879,0,0,0,1.243-1.243l-3.077-3.078-.03-.027a.877.877,0,0,0-1.214.027h0l-3.074,3.078a.879.879,0,0,0,.622,1.5Z" transform="translate(-386.635 -115.216)" fill="#9f0925"/>
    <path id="Trazado_722653" data-name="Trazado 722653" d="M429.879,135.074a.876.876,0,0,0,.622-.258l1.573-1.575v6.954a.879.879,0,0,0,1.758,0V133.24l1.576,1.577a.879.879,0,0,0,1.243-1.243l-3.077-3.078-.03-.027a.877.877,0,0,0-1.214.027h0l-3.074,3.078a.879.879,0,0,0,.622,1.5Z" transform="translate(-378.334 -93.943)" fill="#9f0925"/>
    <path id="Trazado_722581" data-name="Trazado 722581" d="M55.565,46.247A13.03,13.03,0,0,0,46.075,43c-.242.015-.481.04-.72.068V37.145l1.573,1.575a.879.879,0,1,0,1.244-1.242L45.1,34.4h0l0,0-.029-.026a.875.875,0,0,0-1.18,0,.407.407,0,0,0-.032.029l-3.077,3.078a.879.879,0,0,0,1.243,1.243L43.6,37.143V43.4a12.961,12.961,0,0,0-5.226,2.735,16.013,16.013,0,0,0-4.053-1.493c-.332-.25-.939-.722-1.627-1.257-.581-.451-1.213-.943-1.811-1.4a15.075,15.075,0,0,0,3.985-6.406,4.445,4.445,0,0,0,2.161-1.2,3.834,3.834,0,0,0,1.227-2.656V30.533a2.082,2.082,0,0,0-2.079-2.079H35.26V22.818A9.265,9.265,0,0,0,32.679,16.5a14.239,14.239,0,0,0-5.838-3.69,14.07,14.07,0,0,0-6.41-.686,7.882,7.882,0,0,0-4.945,2.507c-2.36.341-5.867,2.135-5.746,9.8,0,.076,0,.138,0,.185v3.84H8.831a2.083,2.083,0,0,0-2.083,2.079v1.191a3.839,3.839,0,0,0,1.227,2.654,4.451,4.451,0,0,0,2.162,1.2,15.142,15.142,0,0,0,4.073,6.489c-.588.454-1.2.932-1.771,1.372-.658.511-1.236.961-1.56,1.2a16.347,16.347,0,0,0-6.774,3.3A.879.879,0,1,0,5.229,49.3a14.565,14.565,0,0,1,5.821-2.893l5,3.717c.019.014.038.027.057.04a4.025,4.025,0,0,1,.405.288,1.348,1.348,0,0,0,.818.34,1.465,1.465,0,0,0,.994-.559c.141-.143.34-.346.636-.614l.465,1.825-2.9,9.668a.043.043,0,0,0,0,.016l0,.008a.975.975,0,0,0,.064.809l1.572,2.976H9.292v-5.5a.879.879,0,0,0-1.758,0v5.5h-5.3l-.272,0c-.063,0-.135,0-.2,0,0-.028,0-.061,0-.1V55.8A7.292,7.292,0,0,1,2.8,52.1a.879.879,0,0,0-1.52-.885A9.023,9.023,0,0,0,0,55.8v9.027a1.944,1.944,0,0,0,.477,1.431,1.93,1.93,0,0,0,1.518.422l.24,0H39.186a12.989,12.989,0,0,0,7.7,2.513c.281,0,.565-.008.849-.027a13.107,13.107,0,0,0,7.831-22.916ZM35.26,32.987V30.212h.915a.325.325,0,0,1,.321.321v1.191a2.123,2.123,0,0,1-.7,1.4,3.044,3.044,0,0,1-.554.434Q35.26,33.269,35.26,32.987Zm-26.049.141a2.125,2.125,0,0,1-.7-1.4V30.533a.328.328,0,0,1,.325-.321h.912v2.775c0,.188.008.38.022.573a3.058,3.058,0,0,1-.554-.433Zm22.4,11.646.872.679-4.356,3.239c-.067.042-.128.082-.183.121-.189-.187-.445-.434-.808-.746l-.911-.838a.907.907,0,0,0-.086-.079L24.56,45.693a11.955,11.955,0,0,0,1.224-.388,14.173,14.173,0,0,0,3.749-2.141C30.2,43.678,30.942,44.254,31.613,44.774Zm-7,3.355-.625,2.453H21.021l-.588-2.308L22.6,46.28Zm-8.591-31.8a.879.879,0,0,0,.62-.339,6.667,6.667,0,0,1,5.466-2.236,13.2,13.2,0,0,1,4.17.711c3.333,1.136,7.227,4,7.227,8.348v4.765H32.2c-1.852,0-3.038-1.112-4.41-2.4-1.65-1.548-3.521-3.3-6.835-3.3H17.2c-2.806,0-3.258,2.206-3.589,3.816-.357,1.744-.611,2.64-2.108,2.745v-3.83c0-.054,0-.125,0-.212-.055-3.495.684-7.73,4.52-8.067ZM11.692,34.575a7.126,7.126,0,0,1-.191-1.588V30.2c3.011-.156,3.5-2.55,3.831-4.152.366-1.786.606-2.411,1.866-2.411h3.755c2.619,0,4.083,1.372,5.633,2.826,1.507,1.413,3.066,2.875,5.613,2.875h1.3v3.646a7.141,7.141,0,0,1-.19,1.589,13.918,13.918,0,0,1-8.145,9.082,7.49,7.49,0,0,1-2.665.548,7.484,7.484,0,0,1-2.666-.55A13.922,13.922,0,0,1,11.692,34.575Zm7.187,12.74c-.015.013-.029.027-.045.041l-.772.71c-.362.314-.618.559-.806.746-.056-.038-.117-.079-.185-.121l-4.356-3.24c.24-.185.511-.4.805-.625.658-.511,1.382-1.075,2.05-1.587a14.071,14.071,0,0,0,3.65,2.064,11.449,11.449,0,0,0,1.383.428Zm7.972,17.6,1.574-2.98a.982.982,0,0,0,.056-.829l-.612-2.031a.879.879,0,0,0-1.683.506l.543,1.8-1.866,3.532H20.141l-1.866-3.532,2.717-9.047h3.023l1.018,3.4a.877.877,0,0,0,.842.626.891.891,0,0,0,.252-.036.879.879,0,0,0,.59-1.095L25.58,51.442l.5-1.965c.389.342.633.589.8.756a1.465,1.465,0,0,0,.992.559,1.343,1.343,0,0,0,.817-.341,4.322,4.322,0,0,1,.405-.288c.021-.013.04-.026.059-.04l5-3.717a14.309,14.309,0,0,1,2.912,1.029,13.107,13.107,0,0,0,.163,17.485H26.851Zm28.566-1.335a11.319,11.319,0,0,1-15.632,1.335q-.193-.155-.38-.32a11.27,11.27,0,0,1-3.823-7.8q-.023-.369-.023-.735a11.261,11.261,0,0,1,2.832-7.483c.081-.093.164-.183.248-.272a11.275,11.275,0,0,1,7.548-3.554q.367-.023.734-.023a11.348,11.348,0,0,1,8.5,18.849Z" transform="translate(0)" fill="#9f0925"/>
    <path id="Trazado_722582" data-name="Trazado 722582" d="M370.893,333.792h3.9a.879.879,0,1,0,0-1.758h-2.005v-1.342a.879.879,0,0,0-1.758,0v1.342h-.135a2.749,2.749,0,0,0,0,5.5h2.044a.989.989,0,0,1-.013,1.978h-3.9a.879.879,0,1,0,0,1.758h2v1.342a.879.879,0,0,0,1.758,0v-1.342h.141a2.747,2.747,0,0,0,.013-5.494h-2.044a.991.991,0,0,1,0-1.982Z" transform="translate(-325.005 -280.568)" fill="#9f0925"/>
  </g>
</svg>
