<svg xmlns="http://www.w3.org/2000/svg" width="100" height="100" viewBox="0 0 100 100">
  <g id="Grupo_80119" data-name="Grupo 80119" transform="translate(-209 -1333)">
    <circle id="Elipse_4717" data-name="Elipse 4717" cx="50" cy="50" r="50" transform="translate(209 1333)" fill="#b3eeef"/>
    <g id="calendario" transform="translate(228 1329.876)">
      <path id="Trazado_722583" data-name="Trazado 722583" d="M29.847,70.319H5.376a3.558,3.558,0,0,1-3.554-3.554V38.715H7.884a.911.911,0,0,0,0-1.822H1.822V34.343A3.558,3.558,0,0,1,5.376,30.79H9.909v1.049a2.794,2.794,0,0,0,5.588,0V30.79h2.279v1.049a2.794,2.794,0,1,0,5.588,0V30.79h2.279v1.049a2.794,2.794,0,0,0,5.588,0V30.79h2.279v1.049a2.794,2.794,0,1,0,5.588,0V30.79h2.279v1.049a2.794,2.794,0,0,0,5.588,0V30.79H51.5a3.558,3.558,0,0,1,3.554,3.554v2.549H11.767a.911.911,0,0,0,0,1.822H55.053V50.546a.911.911,0,0,0,1.822,0v-16.2A5.382,5.382,0,0,0,51.5,28.967H46.966V27.918a2.794,2.794,0,1,0-5.588,0v1.049H39.1V27.918a2.794,2.794,0,1,0-5.588,0v1.049H31.231V27.918a2.794,2.794,0,0,0-5.588,0v1.049H23.364V27.918a2.794,2.794,0,1,0-5.588,0v1.049H15.5V27.918a2.794,2.794,0,0,0-5.588,0v1.049H5.376A5.382,5.382,0,0,0,0,34.343V66.765a5.382,5.382,0,0,0,5.376,5.376H29.847a.911.911,0,1,0,0-1.822ZM43.2,27.918a.972.972,0,1,1,1.943,0v3.921a.972.972,0,0,1-1.943,0Zm-7.867,0a.972.972,0,1,1,1.943,0v3.921a.972.972,0,0,1-1.943,0Zm-7.867,0a.972.972,0,0,1,1.943,0v3.921a.972.972,0,0,1-1.943,0Zm-7.867,0a.972.972,0,0,1,1.943,0v3.921a.972.972,0,0,1-1.943,0Zm-7.867,0a.972.972,0,0,1,1.943,0v3.921a.972.972,0,0,1-1.943,0Z" transform="translate(0 0)" fill="#9f0925"/>
      <path id="Trazado_722584" data-name="Trazado 722584" d="M276.573,236.34a15.169,15.169,0,0,0-13.072,7.529.911.911,0,0,0,1.576.916,13.226,13.226,0,1,1-1.38,3.375.911.911,0,0,0-1.766-.45,15.111,15.111,0,1,0,14.642-11.37Z" transform="translate(-229.7 -185.556)" fill="#9f0925"/>
      <path id="Trazado_722585" data-name="Trazado 722585" d="M380.155,269.163v-.79a.911.911,0,1,0-1.822,0v.79a.911.911,0,1,0,1.822,0Z" transform="translate(-332.371 -212.897)" fill="#9f0925"/>
      <path id="Trazado_722586" data-name="Trazado 722586" d="M319.172,294.958a.911.911,0,0,0,.644-1.555l-.559-.559a.911.911,0,1,0-1.289,1.288l.559.559a.908.908,0,0,0,.644.267Z" transform="translate(-279.105 -234.961)" fill="#9f0925"/>
      <path id="Trazado_722587" data-name="Trazado 722587" d="M294.287,355.031a.911.911,0,0,0,0-1.822h-.79a.911.911,0,0,0,0,1.822Z" transform="translate(-257.041 -288.227)" fill="#9f0925"/>
      <path id="Trazado_722588" data-name="Trazado 722588" d="M317.968,411.355a.911.911,0,0,0,1.288,0l.559-.559a.911.911,0,1,0-1.288-1.289l-.559.559A.911.911,0,0,0,317.968,411.355Z" transform="translate(-279.105 -337.452)" fill="#9f0925"/>
      <path id="Trazado_722589" data-name="Trazado 722589" d="M378.333,433.362v.79a.911.911,0,1,0,1.822,0v-.79a.911.911,0,0,0-1.822,0Z" transform="translate(-332.371 -357.842)" fill="#9f0925"/>
      <path id="Trazado_722590" data-name="Trazado 722590" d="M434.633,410.8l.559.559a.911.911,0,0,0,1.289-1.289l-.559-.559a.911.911,0,0,0-1.289,1.289Z" transform="translate(-381.596 -337.453)" fill="#9f0925"/>
      <path id="Trazado_722591" data-name="Trazado 722591" d="M459.276,355.031a.911.911,0,0,0,0-1.822h-.79a.911.911,0,1,0,0,1.822Z" transform="translate(-401.986 -288.227)" fill="#9f0925"/>
      <path id="Trazado_722592" data-name="Trazado 722592" d="M435.278,294.958a.909.909,0,0,0,.644-.267l.559-.559a.911.911,0,1,0-1.289-1.288l-.559.559a.911.911,0,0,0,.644,1.555Z" transform="translate(-381.597 -234.961)" fill="#9f0925"/>
      <path id="Trazado_722593" data-name="Trazado 722593" d="M345.8,315.563a.911.911,0,1,0-1.355,1.218l2.084,2.318a3.215,3.215,0,1,0,5.7.436l1.676-1.371a.911.911,0,1,0-1.154-1.411l-1.677,1.372a3.209,3.209,0,0,0-3.194-.245Zm4.862,5.219a1.394,1.394,0,1,1-2.329-1.03l.005,0,.006-.006a1.391,1.391,0,0,1,2.318,1.04Z" transform="translate(-302.393 -254.889)" fill="#9f0925"/>
      <path id="Trazado_722594" data-name="Trazado 722594" d="M52.729,165.081a2.113,2.113,0,0,0-2.111-2.111h-2.7a2.113,2.113,0,0,0-2.111,2.111v2.7a2.113,2.113,0,0,0,2.111,2.111h2.7a2.113,2.113,0,0,0,2.111-2.111Zm-1.822,2.7a.289.289,0,0,1-.289.289h-2.7a.289.289,0,0,1-.289-.289v-2.7a.289.289,0,0,1,.289-.289h2.7a.289.289,0,0,1,.289.289Z" transform="translate(-40.24 -121.1)" fill="#9f0925"/>
      <path id="Trazado_722595" data-name="Trazado 722595" d="M132.25,165.081a2.113,2.113,0,0,0-2.111-2.111h-2.7a2.113,2.113,0,0,0-2.111,2.111v2.7a2.113,2.113,0,0,0,2.111,2.111h2.7a2.113,2.113,0,0,0,2.111-2.111Zm-1.822,2.7a.289.289,0,0,1-.289.289h-2.7a.289.289,0,0,1-.289-.289v-2.7a.289.289,0,0,1,.289-.289h2.7a.289.289,0,0,1,.289.289Z" transform="translate(-110.101 -121.1)" fill="#9f0925"/>
      <path id="Trazado_722596" data-name="Trazado 722596" d="M206.958,162.97a2.113,2.113,0,0,0-2.111,2.111v2.7a2.113,2.113,0,0,0,2.111,2.111h2.7a2.113,2.113,0,0,0,2.111-2.111v-2.7a2.113,2.113,0,0,0-2.111-2.111Zm2.991,2.111v2.7a.289.289,0,0,1-.289.289h-2.7a.289.289,0,0,1-.289-.289v-2.7a.289.289,0,0,1,.289-.289h2.7A.289.289,0,0,1,209.949,165.081Z" transform="translate(-179.961 -121.1)" fill="#9f0925"/>
      <path id="Trazado_722597" data-name="Trazado 722597" d="M286.479,162.97a2.113,2.113,0,0,0-2.111,2.111v2.7a2.113,2.113,0,0,0,2.111,2.111h2.7a2.113,2.113,0,0,0,2.111-2.111v-2.7a2.113,2.113,0,0,0-2.111-2.111Zm2.991,2.111v2.7a.289.289,0,0,1-.289.289h-2.7a.289.289,0,0,1-.289-.289v-2.7a.289.289,0,0,1,.289-.289h2.7A.289.289,0,0,1,289.47,165.081Z" transform="translate(-249.821 -121.1)" fill="#9f0925"/>
      <path id="Trazado_722598" data-name="Trazado 722598" d="M366,162.97a2.113,2.113,0,0,0-2.111,2.111v2.7A2.113,2.113,0,0,0,366,169.894h2.7a2.113,2.113,0,0,0,2.111-2.111v-2.7a2.113,2.113,0,0,0-2.111-2.111Zm2.991,2.111v2.7a.289.289,0,0,1-.289.289H366a.289.289,0,0,1-.289-.289v-2.7a.289.289,0,0,1,.289-.289h2.7A.289.289,0,0,1,368.992,165.081Z" transform="translate(-319.682 -121.1)" fill="#9f0925"/>
      <path id="Trazado_722599" data-name="Trazado 722599" d="M52.729,240.842a2.113,2.113,0,0,0-2.111-2.111h-2.7a2.113,2.113,0,0,0-2.111,2.111v2.7a2.113,2.113,0,0,0,2.111,2.111h2.7a2.113,2.113,0,0,0,2.111-2.111Zm-1.822,2.7a.289.289,0,0,1-.289.289h-2.7a.289.289,0,0,1-.289-.289v-2.7a.289.289,0,0,1,.289-.289h2.7a.289.289,0,0,1,.289.289Z" transform="translate(-40.24 -187.657)" fill="#9f0925"/>
      <path id="Trazado_722600" data-name="Trazado 722600" d="M132.25,240.842a2.113,2.113,0,0,0-2.111-2.111h-2.7a2.113,2.113,0,0,0-2.111,2.111v2.7a2.113,2.113,0,0,0,2.111,2.111h2.7a2.113,2.113,0,0,0,2.111-2.111Zm-1.822,2.7a.289.289,0,0,1-.289.289h-2.7a.289.289,0,0,1-.289-.289v-2.7a.289.289,0,0,1,.289-.289h2.7a.289.289,0,0,1,.289.289Z" transform="translate(-110.101 -187.657)" fill="#9f0925"/>
      <path id="Trazado_722601" data-name="Trazado 722601" d="M211.771,240.842a2.113,2.113,0,0,0-2.111-2.111h-2.7a2.113,2.113,0,0,0-2.111,2.111v2.7a2.113,2.113,0,0,0,2.111,2.111h2.7a2.113,2.113,0,0,0,2.111-2.111Zm-1.822,2.7a.289.289,0,0,1-.289.289h-2.7a.289.289,0,0,1-.289-.289v-2.7a.289.289,0,0,1,.289-.289h2.7a.289.289,0,0,1,.289.289Z" transform="translate(-179.961 -187.657)" fill="#9f0925"/>
      <path id="Trazado_722602" data-name="Trazado 722602" d="M50.618,314.492h-2.7a2.113,2.113,0,0,0-2.111,2.111v2.7a2.113,2.113,0,0,0,2.111,2.111h2.7a2.113,2.113,0,0,0,2.111-2.111v-2.7A2.113,2.113,0,0,0,50.618,314.492Zm.289,4.813a.289.289,0,0,1-.289.289h-2.7a.289.289,0,0,1-.289-.289v-2.7a.289.289,0,0,1,.289-.289h2.7a.289.289,0,0,1,.289.289Z" transform="translate(-40.24 -254.214)" fill="#9f0925"/>
      <path id="Trazado_722603" data-name="Trazado 722603" d="M130.139,314.492h-2.7a2.113,2.113,0,0,0-2.111,2.111v2.7a2.113,2.113,0,0,0,2.111,2.111h2.7a2.113,2.113,0,0,0,2.111-2.111v-2.7A2.113,2.113,0,0,0,130.139,314.492Zm.289,4.813a.289.289,0,0,1-.289.289h-2.7a.289.289,0,0,1-.289-.289v-2.7a.289.289,0,0,1,.289-.289h2.7a.289.289,0,0,1,.289.289Z" transform="translate(-110.101 -254.214)" fill="#9f0925"/>
    </g>
  </g>
</svg>
