<svg xmlns="http://www.w3.org/2000/svg" width="100" height="100" viewBox="0 0 100 100">
  <g id="Grupo_969150" data-name="Grupo 969150" transform="translate(-476 -703)">
    <circle id="Elipse_4882" data-name="Elipse 4882" cx="50" cy="50" r="50" transform="translate(476 703)" fill="#b3eeef"/>
    <g id="_24_Investment" data-name="24 Investment" transform="translate(494.015 721.044)">
      <path id="Trazado_722616" data-name="Trazado 722616" d="M42.694,16.53a11,11,0,1,0-21.383.025,17.935,17.935,0,0,0-1.37,27.789A6.007,6.007,0,0,1,22,48.77V49a2,2,0,0,0,2,2v4a2,2,0,0,0,2,2h.22l.621,2.484A2,2,0,0,0,28.781,61h6.438a2,2,0,0,0,1.94-1.516L37.78,57H38a2,2,0,0,0,2-2V51a2,2,0,0,0,2-2v-.23a5.943,5.943,0,0,1,2.016-4.394A17.963,17.963,0,0,0,42.694,16.53ZM25.852,23.119a9.9,9.9,0,0,0-2.1,2.23L22.331,23.9a12.155,12.155,0,0,1,1.941-2.08,14.061,14.061,0,0,0,1.58,1.3Zm13.876-1.3a12.155,12.155,0,0,1,1.941,2.08l-1.427,1.445a9.894,9.894,0,0,0-2.095-2.229,16.038,16.038,0,0,0,1.581-1.3ZM32,5a8.993,8.993,0,0,1,4.468,16.8c-.083.047-.167.09-.251.134A9.557,9.557,0,0,0,32,21a10.12,10.12,0,0,0-4.225.931A8.99,8.99,0,0,1,32,5Zm3.22,54H28.78l-.5-2h7.438ZM38,55H26V51H38ZM28,39H27a1,1,0,1,1,1-1Zm2,2h4v8H30Zm12.682,1.886A7.954,7.954,0,0,0,40,48.77V49H36V41h1a3,3,0,1,0-3-3v1H30V38a3,3,0,1,0-3,3h1v8H24v-.23a8.014,8.014,0,0,0-2.72-5.914,15.966,15.966,0,0,1,.7-24.319A13.342,13.342,0,0,0,22.986,20.3a14.153,14.153,0,0,0-2.266,2.42,1.988,1.988,0,0,0,.186,2.588l1.426,1.445a1.99,1.99,0,0,0,1.419.6,1.253,1.253,0,0,0,.184-.009,1.994,1.994,0,0,0,1.474-.865,8,8,0,0,1,2.831-2.534,7.5,7.5,0,0,1,.811-.369l.144-.055a8.21,8.21,0,0,1,5.6,0c.051.019.1.038.151.059a7.383,7.383,0,0,1,.8.366,8,8,0,0,1,2.832,2.535,2,2,0,0,0,1.471.865c.061.006.123.008.184.008a1.993,1.993,0,0,0,1.421-.6l1.425-1.444a1.99,1.99,0,0,0,.187-2.589A14.125,14.125,0,0,0,41.013,20.3a12.472,12.472,0,0,0,.968-1.685c.013-.028.032-.054.044-.082a15.973,15.973,0,0,1,.657,24.357ZM36,39V38a1,1,0,1,1,1,1Z" fill="#9f0925"/>
      <path id="Trazado_722617" data-name="Trazado 722617" d="M31,15h2a1,1,0,0,1,0,2H30a1,1,0,0,0,0,2h1a1,1,0,0,0,2,0,3,3,0,0,0,0-6H31a1,1,0,0,1,0-2h3a1,1,0,0,0,0-2H33a1,1,0,0,0-2,0,3,3,0,0,0,0,6Z" fill="#9f0925"/>
      <circle id="Elipse_4876" data-name="Elipse 4876" cx="1.005" cy="1.005" r="1.005" transform="translate(9.985 29.985)" fill="#9f0925"/>
      <circle id="Elipse_4877" data-name="Elipse 4877" cx="1.005" cy="1.005" r="1.005" transform="translate(11.99 21)" fill="#9f0925"/>
      <circle id="Elipse_4878" data-name="Elipse 4878" cx="1.005" cy="1.005" r="1.005" transform="translate(52.005 29.99)" fill="#9f0925"/>
      <circle id="Elipse_4879" data-name="Elipse 4879" cx="1.005" cy="1.005" r="1.005" transform="translate(50 21.005)" fill="#9f0925"/>
      <circle id="Elipse_4880" data-name="Elipse 4880" cx="1.005" cy="1.005" r="1.005" transform="translate(11.99 39)" fill="#9f0925"/>
      <circle id="Elipse_4881" data-name="Elipse 4881" cx="1.005" cy="1.005" r="1.005" transform="translate(50 39.005)" fill="#9f0925"/>
    </g>
  </g>
</svg>
