<svg xmlns="http://www.w3.org/2000/svg" xmlns:xlink="http://www.w3.org/1999/xlink" width="100" height="100" viewBox="0 0 100 100">
  <defs>
    <clipPath id="clip-path">
      <path id="path1860" d="M0-682.665H64.665V-618H0Z" transform="translate(0 682.665)" fill="#9f0925"/>
    </clipPath>
  </defs>
  <g id="Grupo_969166" data-name="Grupo 969166" transform="translate(-220 -4130)">
    <g id="Grupo_80119" data-name="Grupo 80119" transform="translate(11 2797)">
      <circle id="Elipse_4717" data-name="Elipse 4717" cx="50" cy="50" r="50" transform="translate(209 1333)" fill="#b3eeef"/>
      <g id="g1854" transform="translate(227 2033.665)">
        <g id="g1856" transform="translate(0 -682.665)">
          <g id="g1858" clip-path="url(#clip-path)">
            <g id="g1864" transform="translate(11.409 6.594)">
              <path id="path1866" d="M-61.881-545.931h-2.29a2.092,2.092,0,0,1-2.092-2.092v-41.343a45.78,45.78,0,0,0-1.966-13.272l-.126-.417" transform="translate(68.356 603.054)" fill="none" stroke="#9f0925" stroke-linecap="round" stroke-linejoin="round" stroke-miterlimit="10" stroke-width="2"/>
            </g>
            <g id="g1868" transform="translate(21.673 6.577)">
              <path id="path1870" d="M-301.837,0l-.135.447A45.781,45.781,0,0,0-303.93,13.69V55.048a2.092,2.092,0,0,1-2.092,2.092h-27.4" transform="translate(333.421)" fill="none" stroke="#9f0925" stroke-linecap="round" stroke-linejoin="round" stroke-miterlimit="10" stroke-width="2"/>
            </g>
            <g id="g1872" transform="translate(25.009 0.947)">
              <path id="path1874" d="M-69.987-99.982l-7.323-10.462h14.646Z" transform="translate(77.31 110.444)" fill="none" stroke="#9f0925" stroke-linecap="round" stroke-linejoin="round" stroke-miterlimit="10" stroke-width="2"/>
            </g>
            <g id="g1876" transform="translate(13.501 59.533)">
              <path id="path1878" d="M0,0H37.662" transform="translate(0 0)" fill="none" stroke="#9f0925" stroke-linecap="round" stroke-linejoin="round" stroke-miterlimit="10" stroke-width="2"/>
            </g>
            <g id="g1880" transform="translate(32.332 11.409)">
              <path id="path1882" d="M0,0V52.309" fill="none" stroke="#9f0925" stroke-linecap="round" stroke-linejoin="round" stroke-miterlimit="10" stroke-width="2"/>
            </g>
            <g id="g1884" transform="translate(36.517 28.148)">
              <path id="path1886" d="M-93.427-94.049l-4.185,1.535a1.045,1.045,0,0,1-.721,0l-4.185-1.535a1.046,1.046,0,0,1-.686-.982v-7.813a1.046,1.046,0,0,1,1.046-1.046h8.369a1.046,1.046,0,0,1,1.046,1.046v7.813A1.046,1.046,0,0,1-93.427-94.049Z" transform="translate(103.202 103.89)" fill="none" stroke="#9f0925" stroke-linecap="round" stroke-linejoin="round" stroke-miterlimit="10" stroke-width="2"/>
            </g>
            <g id="g1888" transform="translate(36.517 33.379)">
              <path id="path1890" d="M0,0,4.82.964a2.093,2.093,0,0,0,.821,0L10.462,0" fill="none" stroke="#9f0925" stroke-linecap="round" stroke-linejoin="round" stroke-miterlimit="10" stroke-width="2"/>
            </g>
            <g id="g1892" transform="translate(17.686 28.148)">
              <path id="path1894" d="M-93.427-94.049l-4.185,1.535a1.045,1.045,0,0,1-.721,0l-4.185-1.535a1.046,1.046,0,0,1-.686-.982v-7.813a1.046,1.046,0,0,1,1.046-1.046h8.369a1.046,1.046,0,0,1,1.046,1.046v7.813A1.046,1.046,0,0,1-93.427-94.049Z" transform="translate(103.202 103.89)" fill="none" stroke="#9f0925" stroke-linecap="round" stroke-linejoin="round" stroke-miterlimit="10" stroke-width="2"/>
            </g>
            <g id="g1896" transform="translate(17.686 33.379)">
              <path id="path1898" d="M0,0,4.821.964a2.092,2.092,0,0,0,.821,0L10.462,0" fill="none" stroke="#9f0925" stroke-linecap="round" stroke-linejoin="round" stroke-miterlimit="10" stroke-width="2"/>
            </g>
            <g id="g1900" transform="translate(22.076 0.947)">
              <path id="path1902" d="M-28.031,0-30.5,1.645a1.046,1.046,0,0,0-.409,1.211l3.572,10.386a1.046,1.046,0,0,0,1.562.535l5.065-3.315" transform="translate(30.964)" fill="none" stroke="#9f0925" stroke-linecap="round" stroke-linejoin="round" stroke-miterlimit="10" stroke-width="2"/>
            </g>
            <g id="g1904" transform="translate(32.333 0.947)">
              <path id="path1906" d="M-69.987,0l2.467,1.645a1.046,1.046,0,0,1,.409,1.211l-3.572,10.386a1.046,1.046,0,0,1-1.562.535l-5.065-3.315" transform="translate(77.31)" fill="none" stroke="#9f0925" stroke-linecap="round" stroke-linejoin="round" stroke-miterlimit="10" stroke-width="2"/>
            </g>
            <g id="g1908" transform="translate(0.947 3.803)">
              <path id="path1910" d="M-202.473,0l-20.4,5.279a1.046,1.046,0,0,0-.772,1.16l1.832,12.823a1.046,1.046,0,0,0,1.036.9h9.676" transform="translate(223.659)" fill="none" stroke="#9f0925" stroke-linecap="round" stroke-linejoin="round" stroke-miterlimit="10" stroke-width="2"/>
            </g>
            <g id="g1912" transform="translate(12.606 8.402)">
              <path id="path1914" d="M0-27.466,11.108-30.34" transform="translate(0 30.34)" fill="none" stroke="#9f0925" stroke-linecap="round" stroke-linejoin="round" stroke-miterlimit="10" stroke-width="2"/>
            </g>
            <g id="g1916" transform="translate(40.95 8.402)">
              <path id="path1918" d="M-106.134-27.459l-11.105-2.873" transform="translate(117.24 30.332)" fill="none" stroke="#9f0925" stroke-linecap="round" stroke-linejoin="round" stroke-miterlimit="10" stroke-width="2"/>
            </g>
            <g id="g1920" transform="translate(5.745 14.461)">
              <path id="path1922" d="M0,0,1.357,9.5" fill="none" stroke="#9f0925" stroke-linecap="round" stroke-linejoin="round" stroke-miterlimit="10" stroke-width="2"/>
            </g>
            <g id="g1924" transform="translate(4.861 8.27)">
              <path id="path1926" d="M0,0,.349,2.442" fill="none" stroke="#9f0925" stroke-linecap="round" stroke-linejoin="round" stroke-miterlimit="10" stroke-width="2"/>
            </g>
            <g id="g1928" transform="translate(42.532 3.803)">
              <path id="path1930" d="M0,0,20.4,5.279a1.046,1.046,0,0,1,.772,1.16L19.343,19.262a1.046,1.046,0,0,1-1.036.9H8.632" fill="none" stroke="#9f0925" stroke-linecap="round" stroke-linejoin="round" stroke-miterlimit="10" stroke-width="2"/>
            </g>
            <g id="g1932" transform="translate(57.562 8.27)">
              <path id="path1934" d="M-21.425,0l-2.242,15.693" transform="translate(23.667)" fill="none" stroke="#9f0925" stroke-linecap="round" stroke-linejoin="round" stroke-miterlimit="10" stroke-width="2"/>
            </g>
            <g id="g1936" transform="translate(41.516 17.686)">
              <path id="path1938" d="M-31.021-59.989h-.215a3.031,3.031,0,0,1-3.031-3.031v-2.235a1.01,1.01,0,0,1,1.01-1.01H-29a1.01,1.01,0,0,1,1.01,1.01v2.235A3.031,3.031,0,0,1-31.021-59.989Z" transform="translate(34.267 66.267)" fill="none" stroke="#9f0925" stroke-linecap="round" stroke-linejoin="round" stroke-miterlimit="10" stroke-width="2"/>
            </g>
            <g id="g1940" transform="translate(19.778 21.871)">
              <path id="path1942" d="M0,0H6.277" transform="translate(0 0)" fill="none" stroke="#9f0925" stroke-linecap="round" stroke-linejoin="round" stroke-miterlimit="10" stroke-width="2"/>
            </g>
          </g>
        </g>
      </g>
    </g>
  </g>
</svg>
