<svg xmlns="http://www.w3.org/2000/svg" xmlns:xlink="http://www.w3.org/1999/xlink" width="100" height="100" viewBox="0 0 100 100">
  <defs>
    <clipPath id="clip-path">
      <path id="path2814" d="M0-682.665H56.009v56.009H0Z" transform="translate(0 682.665)" fill="none"/>
    </clipPath>
  </defs>
  <g id="Grupo_969077" data-name="Grupo 969077" transform="translate(-354 -3116)">
    <circle id="Elipse_4711" data-name="Elipse 4711" cx="50" cy="50" r="50" transform="translate(354 3116)" fill="#b3eeef"/>
    <g id="g2808" transform="translate(376 3138)">
      <g id="g2810" transform="translate(0 0)">
        <g id="g2812" clip-path="url(#clip-path)">
          <g id="g2818" transform="translate(8.861 1.094)">
            <path id="path2820" d="M-269.266,0h14.221V53.821h-38.287V0h14.221" transform="translate(293.333)" fill="none" stroke="#9f0925" stroke-linecap="round" stroke-linejoin="round" stroke-miterlimit="10" stroke-width="2"/>
          </g>
        </g>
      </g>
      <g id="g2822" transform="translate(14.33 36.114)">
        <path id="path2824" d="M-305.984,0h-27.348" transform="translate(333.332 0)" fill="none" stroke="#9f0925" stroke-linecap="round" stroke-linejoin="round" stroke-miterlimit="10" stroke-width="2"/>
      </g>
      <g id="g2826" transform="translate(14.33 40.49)">
        <path id="path2828" d="M-204.9,0h-18.314" transform="translate(223.218)" fill="none" stroke="#9f0925" stroke-linecap="round" stroke-linejoin="round" stroke-miterlimit="10" stroke-width="2"/>
      </g>
      <g id="g2830" transform="translate(14.33 48.346)">
        <path id="path2832" d="M-90.571,0h-8.1" transform="translate(98.666)" fill="none" stroke="#9f0925" stroke-linecap="round" stroke-linejoin="round" stroke-miterlimit="10" stroke-width="2"/>
      </g>
      <g id="g2834" transform="translate(38.084 40.49)">
        <path id="path2836" d="M-40.219,0h-3.595" transform="translate(43.813)" fill="none" stroke="#9f0925" stroke-linecap="round" stroke-linejoin="round" stroke-miterlimit="10" stroke-width="2"/>
      </g>
      <g id="g2838" transform="translate(38.084 31.738)">
        <path id="path2840" d="M-40.217,0h-3.595" transform="translate(43.812)" fill="none" stroke="#9f0925" stroke-linecap="round" stroke-linejoin="round" stroke-miterlimit="10" stroke-width="2"/>
      </g>
      <g id="g2842" transform="translate(23.364 31.738)">
        <path id="path2844" d="M-103.827,0h-9.28" transform="translate(113.106)" fill="none" stroke="#9f0925" stroke-linecap="round" stroke-linejoin="round" stroke-miterlimit="10" stroke-width="2"/>
      </g>
      <g id="g2846" transform="translate(14.33 31.739)">
        <path id="path2848" d="M0,0H3.595" fill="none" stroke="#9f0925" stroke-linecap="round" stroke-linejoin="round" stroke-miterlimit="10" stroke-width="2"/>
      </g>
      <g id="g2850" transform="translate(28.278 44.866)">
        <path id="path2852" d="M-149.926-38.937h-2.7l-1.592-3.48-3.275,5.195-2.464-3.448-1.7,1.734h-1.678" transform="translate(163.326 42.417)" fill="none" stroke="#9f0925" stroke-linecap="round" stroke-linejoin="round" stroke-miterlimit="10" stroke-width="2"/>
      </g>
      <g id="g2854" transform="translate(0 0)">
        <g id="g2856" clip-path="url(#clip-path)">
          <g id="g2862" transform="translate(17.776 5.949)">
            <path id="path2864" d="M-228.876-114.438A10.228,10.228,0,0,1-239.1-104.21a10.228,10.228,0,0,1-10.228-10.228A10.228,10.228,0,0,1-239.1-124.666,10.228,10.228,0,0,1-228.876-114.438Z" transform="translate(249.333 124.666)" fill="none" stroke="#9f0925" stroke-linejoin="round" stroke-miterlimit="10" stroke-width="2"/>
          </g>
          <g id="g2866" transform="translate(25.594 11.356)">
            <path id="path2868" d="M-26.967-53.935a2.41,2.41,0,0,1-2.41-2.41,2.41,2.41,0,0,1,2.41-2.41,2.4,2.4,0,0,1,1.674.677" transform="translate(29.377 58.756)" fill="none" stroke="#9f0925" stroke-linecap="round" stroke-linejoin="round" stroke-miterlimit="10" stroke-width="2"/>
          </g>
          <g id="g2870" transform="translate(28.004 10.324)">
            <path id="path2872" d="M0,0V1.032" fill="none" stroke="#9f0925" stroke-linecap="round" stroke-linejoin="round" stroke-miterlimit="10" stroke-width="2"/>
          </g>
          <g id="g2874" transform="translate(26.33 16.177)">
            <path id="path2876" d="M-18.726,0a2.41,2.41,0,0,1,2.41,2.41,2.41,2.41,0,0,1-2.41,2.41A2.4,2.4,0,0,1-20.4,4.144" transform="translate(20.4)" fill="none" stroke="#9f0925" stroke-linecap="round" stroke-linejoin="round" stroke-miterlimit="10" stroke-width="2"/>
          </g>
          <g id="g2878" transform="translate(28.004 20.997)">
            <path id="path2880" d="M0,0V1.032" fill="none" stroke="#9f0925" stroke-linecap="round" stroke-linejoin="round" stroke-miterlimit="10" stroke-width="2"/>
          </g>
          <g id="g2882" transform="translate(26.911 0)">
            <path id="path2884" d="M-12.239-24.479a1.094,1.094,0,0,0,1.094-1.094,1.094,1.094,0,0,0-1.094-1.094,1.094,1.094,0,0,0-1.094,1.094,1.094,1.094,0,0,0,1.094,1.094" transform="translate(13.333 26.667)" fill="none"/>
          </g>
        </g>
      </g>
    </g>
  </g>
</svg>
