<svg xmlns="http://www.w3.org/2000/svg" xmlns:xlink="http://www.w3.org/1999/xlink" width="100" height="100" viewBox="0 0 100 100">
  <defs>
    <clipPath id="clip-path">
      <path id="path3834" d="M0-682.665H56.009v56.009H0Z" transform="translate(0 682.665)" fill="none"/>
    </clipPath>
  </defs>
  <g id="Grupo_969079" data-name="Grupo 969079" transform="translate(-1146 -3116)">
    <circle id="Elipse_4713" data-name="Elipse 4713" cx="50" cy="50" r="50" transform="translate(1146 3116)" fill="#b3eeef"/>
    <g id="g3816" transform="translate(1168 3138)">
      <g id="g3818" transform="translate(12.231 6.722)">
        <path id="path3820" d="M-85.015,0h-7.6" transform="translate(92.613)" fill="none" stroke="#9f0925" stroke-linejoin="round" stroke-miterlimit="10" stroke-width="2"/>
      </g>
      <g id="g3822" transform="translate(36.18 6.722)">
        <path id="path3824" d="M-85.015,0h-7.6" transform="translate(92.613)" fill="none" stroke="#9f0925" stroke-linejoin="round" stroke-miterlimit="10" stroke-width="2"/>
      </g>
      <g id="g3826" transform="translate(20.953 42.382)">
        <path id="path3828" d="M-97.315,0h-8.7" transform="translate(106.013)" fill="none" stroke="#9f0925" stroke-linecap="round" stroke-linejoin="round" stroke-miterlimit="10" stroke-width="2"/>
      </g>
      <g id="g3830" transform="translate(0 0)">
        <g id="g3832" clip-path="url(#clip-path)">
          <g id="g3838" transform="translate(1.094 6.722)">
            <path id="path3840" d="M-75.652,0h-6.762V35.66H-72.4" transform="translate(82.413)" fill="none" stroke="#9f0925" stroke-linecap="round" stroke-linejoin="round" stroke-miterlimit="10" stroke-width="2"/>
          </g>
          <g id="g3842" transform="translate(48.154 6.722)">
            <path id="path3844" d="M0,0H6.762V35.66H1.921" fill="none" stroke="#9f0925" stroke-linejoin="round" stroke-miterlimit="10" stroke-width="2"/>
          </g>
        </g>
      </g>
      <g id="g3846" transform="translate(24.205 6.722)">
        <path id="path3848" d="M-85.016,0h-7.6" transform="translate(92.614)" fill="none" stroke="#9f0925" stroke-linejoin="round" stroke-miterlimit="10" stroke-width="2"/>
      </g>
      <g id="g3850" transform="translate(0 0)">
        <g id="g3852" clip-path="url(#clip-path)">
          <g id="g3858" transform="translate(1.094 15.474)">
            <path id="path3860" d="M0,0H53.821" fill="none" stroke="#9f0925" stroke-linejoin="round" stroke-miterlimit="10" stroke-width="2"/>
          </g>
          <path id="path3862" d="M392.015-627.094h-4.376v-7.123h4.376Z" transform="translate(-355.835 638.192)" fill="none" stroke="#9f0925" stroke-linejoin="round" stroke-miterlimit="10" stroke-width="2"/>
          <path id="path3864" d="M246.068-627.094h-4.376v-7.123h4.376Z" transform="translate(-221.863 638.192)" fill="none" stroke="#9f0925" stroke-linejoin="round" stroke-miterlimit="10" stroke-width="2"/>
          <path id="path3866" d="M537.96-627.094h-4.376v-7.123h4.376Z" transform="translate(-489.806 638.192)" fill="none" stroke="#9f0925" stroke-linejoin="round" stroke-miterlimit="10" stroke-width="2"/>
          <path id="path3868" d="M100.123-627.094H95.748v-7.123h4.376Z" transform="translate(-87.892 638.192)" fill="none" stroke="#9f0925" stroke-linejoin="round" stroke-miterlimit="10" stroke-width="2"/>
        </g>
      </g>
      <path id="path3870" d="M96.669-423.713H91.2v-5.47h5.47Z" transform="translate(-83.717 449.979)" fill="none" stroke="#9f0925" stroke-linejoin="round" stroke-miterlimit="10" stroke-width="2"/>
      <path id="path3872" d="M241.2-423.713h-5.47v-5.47h5.47Z" transform="translate(-216.392 449.979)" fill="none" stroke="#9f0925" stroke-linejoin="round" stroke-miterlimit="10" stroke-width="2"/>
      <path id="path3874" d="M385.735-423.713h-5.47v-5.47h5.47Z" transform="translate(-349.067 449.979)" fill="none" stroke="#9f0925" stroke-linejoin="round" stroke-miterlimit="10" stroke-width="2"/>
      <path id="path3876" d="M530.268-423.713H524.8v-5.47h5.47Z" transform="translate(-481.742 449.979)" fill="none" stroke="#9f0925" stroke-linejoin="round" stroke-miterlimit="10" stroke-width="2"/>
      <path id="path3878" d="M96.669-292.167H91.2v-5.47h5.47Z" transform="translate(-83.717 329.226)" fill="none" stroke="#9f0925" stroke-linejoin="round" stroke-miterlimit="10" stroke-width="2"/>
      <path id="path3880" d="M241.2-292.167h-5.47v-5.47h5.47Z" transform="translate(-216.392 329.226)" fill="none" stroke="#9f0925" stroke-linejoin="round" stroke-miterlimit="10" stroke-width="2"/>
      <g id="g3882" transform="translate(0 0)">
        <g id="g3884" clip-path="url(#clip-path)">
          <g id="g3890" transform="translate(29.635 31.584)">
            <path id="path3892" d="M-228.876-114.438A10.228,10.228,0,0,1-239.1-104.21a10.228,10.228,0,0,1-10.228-10.228A10.228,10.228,0,0,1-239.1-124.666,10.228,10.228,0,0,1-228.876-114.438Z" transform="translate(249.333 124.666)" fill="none" stroke="#9f0925" stroke-linejoin="round" stroke-miterlimit="10" stroke-width="2"/>
          </g>
          <g id="g3894" transform="translate(37.452 36.991)">
            <path id="path3896" d="M-26.967-53.935a2.41,2.41,0,0,1-2.41-2.41,2.41,2.41,0,0,1,2.41-2.41,2.4,2.4,0,0,1,1.674.677" transform="translate(29.377 58.756)" fill="none" stroke="#9f0925" stroke-linecap="round" stroke-linejoin="round" stroke-miterlimit="10" stroke-width="2"/>
          </g>
          <g id="g3898" transform="translate(39.863 35.959)">
            <path id="path3900" d="M0,0V1.032" fill="none" stroke="#9f0925" stroke-linecap="round" stroke-linejoin="round" stroke-miterlimit="10" stroke-width="2"/>
          </g>
          <g id="g3902" transform="translate(38.189 41.812)">
            <path id="path3904" d="M-18.726,0a2.41,2.41,0,0,1,2.41,2.41,2.41,2.41,0,0,1-2.41,2.41A2.4,2.4,0,0,1-20.4,4.144" transform="translate(20.4)" fill="none" stroke="#9f0925" stroke-linecap="round" stroke-linejoin="round" stroke-miterlimit="10" stroke-width="2"/>
          </g>
          <g id="g3906" transform="translate(39.863 46.632)">
            <path id="path3908" d="M0,0V1.032" fill="none" stroke="#9f0925" stroke-linecap="round" stroke-linejoin="round" stroke-miterlimit="10" stroke-width="2"/>
          </g>
          <g id="g3910" transform="translate(14.936 41.288)">
            <path id="path3912" d="M-12.239,0a1.094,1.094,0,0,0-1.094,1.094,1.094,1.094,0,0,0,1.094,1.094,1.094,1.094,0,0,0,1.094-1.094A1.094,1.094,0,0,0-12.239,0" transform="translate(13.333 0)" fill="none"/>
          </g>
        </g>
      </g>
    </g>
  </g>
</svg>
