<svg xmlns="http://www.w3.org/2000/svg" width="330.609" height="42.328" viewBox="0 0 330.609 42.328">
  <g id="Grupo_969147" data-name="Grupo 969147" transform="translate(-944.064 -2169.828)">
    <path id="Trazado_722934" data-name="Trazado 722934" d="M7.109-5.461a2.47,2.47,0,0,1,1.117.824,2.009,2.009,0,0,1,.391,1.215,3.207,3.207,0,0,1-.477,1.777A3.362,3.362,0,0,1,6.711-.453,6.721,6.721,0,0,1,3.922,0H.445L.531-.383A1.066,1.066,0,0,0,.977-.535a.844.844,0,0,0,.25-.293,2.669,2.669,0,0,0,.188-.457q.086-.27.258-1.043L3-8.344a6.108,6.108,0,0,0,.172-1.234.659.659,0,0,0-.18-.531,1.016,1.016,0,0,0-.586-.172l.086-.383H6.359a5.862,5.862,0,0,1,1.879.246A2.027,2.027,0,0,1,9.277-9.7a2.042,2.042,0,0,1,.332,1.2,2.729,2.729,0,0,1-.625,1.785A3.914,3.914,0,0,1,7.125-5.547ZM4.953-5.883a5.767,5.767,0,0,0,1.465-.148,2.273,2.273,0,0,0,.957-.531,2.372,2.372,0,0,0,.6-.84,2.773,2.773,0,0,0,.188-1.059,1.678,1.678,0,0,0-.117-.629,1.137,1.137,0,0,0-.4-.5,1.841,1.841,0,0,0-.656-.3A4.358,4.358,0,0,0,6-9.977q-.68,0-1.266.023l-.883,4.07ZM2.719-.719q.477.031,1.172.031a4.539,4.539,0,0,0,1.785-.27A2.39,2.39,0,0,0,6.7-1.914a3.14,3.14,0,0,0,.43-1.7A1.4,1.4,0,0,0,6.613-4.8a2.525,2.525,0,0,0-1.551-.4H3.688ZM17.531-7.086,18.25-7.6l.5.125L17.6-2.523a5.5,5.5,0,0,0-.172,1.156.787.787,0,0,0,.1.453.368.368,0,0,0,.32.141.869.869,0,0,0,.5-.191,5.49,5.49,0,0,0,.75-.73l.445.438a6.8,6.8,0,0,1-1.2,1.066,1.96,1.96,0,0,1-1.074.316A.991.991,0,0,1,16.5-.2a1.223,1.223,0,0,1-.289-.852,2.633,2.633,0,0,1,.18-.914l-.1-.031a6.889,6.889,0,0,1-1.422,1.6,2.32,2.32,0,0,1-1.422.508,1.552,1.552,0,0,1-1.332-.648,3.046,3.046,0,0,1-.473-1.82,6.524,6.524,0,0,1,.527-2.582,4.776,4.776,0,0,1,1.449-1.953A3.271,3.271,0,0,1,15.672-7.6a3.809,3.809,0,0,1,.949.113A3.318,3.318,0,0,1,17.531-7.086Zm-.687,2.328a4.931,4.931,0,0,0,.094-.555q.023-.234.023-.508A1.277,1.277,0,0,0,16.7-6.7a1.145,1.145,0,0,0-.875-.281,1.985,1.985,0,0,0-1.445.648,4.377,4.377,0,0,0-1,1.738,6.913,6.913,0,0,0-.359,2.176,2.585,2.585,0,0,0,.223,1.215.784.784,0,0,0,.746.4A1.515,1.515,0,0,0,15-1.25a6.2,6.2,0,0,0,1.023-1.27,5.537,5.537,0,0,0,.746-1.9Zm9.1-.812a1.71,1.71,0,0,0-.457-1.055,1.629,1.629,0,0,0-1.168-.359,1.519,1.519,0,0,0-1,.316,1.027,1.027,0,0,0-.383.832,1.188,1.188,0,0,0,.1.5,1.5,1.5,0,0,0,.395.473,6.87,6.87,0,0,0,.922.633,6.6,6.6,0,0,1,.789.543,2.619,2.619,0,0,1,.469.488,1.7,1.7,0,0,1,.25.512,2.368,2.368,0,0,1,.078.652,1.933,1.933,0,0,1-.371,1.191,2.2,2.2,0,0,1-1.008.738,4.055,4.055,0,0,1-1.449.242,8.237,8.237,0,0,1-1.273-.1A10.165,10.165,0,0,1,20.445-.3L20.82-2h.609a1.618,1.618,0,0,0,.422,1.133,1.722,1.722,0,0,0,1.242.383,1.82,1.82,0,0,0,1.16-.332,1.133,1.133,0,0,0,.418-.941,1.435,1.435,0,0,0-.117-.605,1.5,1.5,0,0,0-.383-.488,6.286,6.286,0,0,0-.844-.586,6.85,6.85,0,0,1-.949-.664,2.093,2.093,0,0,1-.512-.645,1.784,1.784,0,0,1-.172-.8,1.813,1.813,0,0,1,.332-1.082,2.1,2.1,0,0,1,.949-.715,3.811,3.811,0,0,1,1.438-.25,9.348,9.348,0,0,1,1.324.086,6.181,6.181,0,0,1,1.191.3L26.578-5.57ZM34.3-1.555A5.939,5.939,0,0,1,32.77-.3a3.733,3.733,0,0,1-1.809.422,2.236,2.236,0,0,1-1.754-.691,2.78,2.78,0,0,1-.621-1.926,6,6,0,0,1,.3-1.793A5.239,5.239,0,0,1,29.8-6a4.254,4.254,0,0,1,1.461-1.18A4.06,4.06,0,0,1,33.07-7.6a2.22,2.22,0,0,1,1.418.383,1.448,1.448,0,0,1,.473,1.2,2.135,2.135,0,0,1-1.246,1.992,8.1,8.1,0,0,1-3.7.664,5.18,5.18,0,0,0-.094,1.016,1.806,1.806,0,0,0,.32,1.191,1.316,1.316,0,0,0,1.047.371,2.706,2.706,0,0,0,1.3-.312,5.434,5.434,0,0,0,1.23-.961ZM30.148-4.031a8.37,8.37,0,0,0,1.891-.2A2.53,2.53,0,0,0,33.25-4.84a1.518,1.518,0,0,0,.422-1.129,1.138,1.138,0,0,0-.223-.746.807.807,0,0,0-.66-.27,2.084,2.084,0,0,0-1.52.8A5.309,5.309,0,0,0,30.148-4.031ZM45.9-5.57a1.71,1.71,0,0,0-.457-1.055,1.629,1.629,0,0,0-1.168-.359,1.519,1.519,0,0,0-1,.316,1.027,1.027,0,0,0-.383.832,1.188,1.188,0,0,0,.1.5,1.5,1.5,0,0,0,.395.473,6.87,6.87,0,0,0,.922.633,6.6,6.6,0,0,1,.789.543,2.618,2.618,0,0,1,.469.488,1.7,1.7,0,0,1,.25.512,2.368,2.368,0,0,1,.078.652A1.933,1.933,0,0,1,45.52-.848a2.2,2.2,0,0,1-1.008.738,4.055,4.055,0,0,1-1.449.242,8.237,8.237,0,0,1-1.273-.1A10.165,10.165,0,0,1,40.4-.3L40.773-2h.609A1.618,1.618,0,0,0,41.8-.867a1.722,1.722,0,0,0,1.242.383,1.82,1.82,0,0,0,1.16-.332,1.133,1.133,0,0,0,.418-.941,1.435,1.435,0,0,0-.117-.605,1.5,1.5,0,0,0-.383-.488,6.286,6.286,0,0,0-.844-.586,6.85,6.85,0,0,1-.949-.664,2.093,2.093,0,0,1-.512-.645,1.784,1.784,0,0,1-.172-.8,1.813,1.813,0,0,1,.332-1.082,2.1,2.1,0,0,1,.949-.715,3.811,3.811,0,0,1,1.438-.25,9.348,9.348,0,0,1,1.324.086,6.181,6.181,0,0,1,1.191.3L46.531-5.57ZM54.43-7.086l.719-.516.5.125L54.5-2.523a5.5,5.5,0,0,0-.172,1.156.787.787,0,0,0,.1.453.368.368,0,0,0,.32.141.869.869,0,0,0,.5-.191A5.49,5.49,0,0,0,56-1.7l.445.438a6.8,6.8,0,0,1-1.2,1.066,1.96,1.96,0,0,1-1.074.316A.991.991,0,0,1,53.4-.2a1.223,1.223,0,0,1-.289-.852,2.632,2.632,0,0,1,.18-.914l-.1-.031a6.889,6.889,0,0,1-1.422,1.6,2.32,2.32,0,0,1-1.422.508,1.552,1.552,0,0,1-1.332-.648,3.046,3.046,0,0,1-.473-1.82,6.524,6.524,0,0,1,.527-2.582,4.776,4.776,0,0,1,1.449-1.953A3.271,3.271,0,0,1,52.57-7.6a3.809,3.809,0,0,1,.949.113A3.318,3.318,0,0,1,54.43-7.086Zm-.687,2.328a4.931,4.931,0,0,0,.094-.555q.023-.234.023-.508A1.277,1.277,0,0,0,53.6-6.7a1.145,1.145,0,0,0-.875-.281,1.985,1.985,0,0,0-1.445.648,4.377,4.377,0,0,0-1,1.738,6.913,6.913,0,0,0-.359,2.176,2.585,2.585,0,0,0,.223,1.215.784.784,0,0,0,.746.4A1.515,1.515,0,0,0,51.9-1.25a6.2,6.2,0,0,0,1.023-1.27,5.537,5.537,0,0,0,.746-1.9Zm5.906-4.211q.094-.414.133-.66a2.927,2.927,0,0,0,.039-.457.612.612,0,0,0-.086-.355.482.482,0,0,0-.246-.176,2.467,2.467,0,0,0-.574-.078l.094-.406,1.969-.07h.461L59.516-2.523a5.9,5.9,0,0,0-.172,1.156.787.787,0,0,0,.1.453.368.368,0,0,0,.32.141.869.869,0,0,0,.5-.191,5.49,5.49,0,0,0,.75-.73l.445.438a6.814,6.814,0,0,1-1.238,1.09,2.023,2.023,0,0,1-1.074.293,1,1,0,0,1-.812-.371,1.447,1.447,0,0,1-.3-.949,7.655,7.655,0,0,1,.219-1.516Zm9.391,1.883.719-.516.5.125L69.109-2.523a5.5,5.5,0,0,0-.172,1.156.787.787,0,0,0,.1.453.368.368,0,0,0,.32.141.869.869,0,0,0,.5-.191,5.49,5.49,0,0,0,.75-.73l.445.438a6.8,6.8,0,0,1-1.2,1.066,1.96,1.96,0,0,1-1.074.316.991.991,0,0,1-.773-.32,1.223,1.223,0,0,1-.289-.852,2.633,2.633,0,0,1,.18-.914l-.1-.031a6.889,6.889,0,0,1-1.422,1.6,2.32,2.32,0,0,1-1.422.508,1.552,1.552,0,0,1-1.332-.648,3.046,3.046,0,0,1-.473-1.82,6.524,6.524,0,0,1,.527-2.582,4.776,4.776,0,0,1,1.449-1.953A3.271,3.271,0,0,1,67.18-7.6a3.809,3.809,0,0,1,.949.113A3.318,3.318,0,0,1,69.039-7.086Zm-.687,2.328a4.931,4.931,0,0,0,.094-.555q.023-.234.023-.508a1.277,1.277,0,0,0-.258-.883,1.145,1.145,0,0,0-.875-.281,1.985,1.985,0,0,0-1.445.648,4.377,4.377,0,0,0-1,1.738,6.913,6.913,0,0,0-.359,2.176,2.585,2.585,0,0,0,.223,1.215.784.784,0,0,0,.746.4,1.515,1.515,0,0,0,1.012-.445,6.2,6.2,0,0,0,1.023-1.27,5.537,5.537,0,0,0,.746-1.9Zm6.68-.828A6.511,6.511,0,0,1,76.5-7.109a2.515,2.515,0,0,1,1.434-.484,4.445,4.445,0,0,1,.953.086l-.375,1.75h-.8a1.808,1.808,0,0,0-.133-.508.563.563,0,0,0-.2-.25.569.569,0,0,0-.3-.07,1.067,1.067,0,0,0-.613.242,4.2,4.2,0,0,0-.746.758,6.006,6.006,0,0,0-.66.992,5.079,5.079,0,0,0-.41,1.211L73.906,0H72.555l1.133-4.953a7.316,7.316,0,0,0,.141-.727,3.686,3.686,0,0,0,.031-.43.787.787,0,0,0-.1-.453.368.368,0,0,0-.32-.141.874.874,0,0,0-.512.2,5.607,5.607,0,0,0-.738.723l-.445-.437a7.51,7.51,0,0,1,1.2-1.066,1.916,1.916,0,0,1,1.07-.316.982.982,0,0,1,.777.324,1.236,1.236,0,0,1,.285.848,2.378,2.378,0,0,1-.148.8Zm8.875-4.945-.359,1.516H82.164l.359-1.516ZM81.391-5.266a5.771,5.771,0,0,0,.18-1.172.563.563,0,0,0-.168-.477,1.267,1.267,0,0,0-.66-.141l.086-.414,1.906-.07H83.2L82.07-2.523A5.792,5.792,0,0,0,81.9-1.367a.787.787,0,0,0,.1.453.368.368,0,0,0,.32.141.869.869,0,0,0,.5-.191,5.49,5.49,0,0,0,.75-.73l.445.438A6.817,6.817,0,0,1,82.773-.164,2.023,2.023,0,0,1,81.7.125a1,1,0,0,1-.812-.371,1.447,1.447,0,0,1-.3-.949A6.84,6.84,0,0,1,80.8-2.711Zm10.2-1.82.719-.516.5.125L91.664-2.523a5.5,5.5,0,0,0-.172,1.156.787.787,0,0,0,.1.453.368.368,0,0,0,.32.141.869.869,0,0,0,.5-.191,5.49,5.49,0,0,0,.75-.73l.445.438a6.8,6.8,0,0,1-1.2,1.066,1.96,1.96,0,0,1-1.074.316.991.991,0,0,1-.773-.32,1.223,1.223,0,0,1-.289-.852,2.633,2.633,0,0,1,.18-.914l-.1-.031a6.889,6.889,0,0,1-1.422,1.6,2.32,2.32,0,0,1-1.422.508,1.552,1.552,0,0,1-1.332-.648,3.046,3.046,0,0,1-.473-1.82,6.524,6.524,0,0,1,.527-2.582A4.776,4.776,0,0,1,87.68-6.887,3.271,3.271,0,0,1,89.734-7.6a3.809,3.809,0,0,1,.949.113A3.318,3.318,0,0,1,91.594-7.086Zm-.687,2.328A4.931,4.931,0,0,0,91-5.312q.023-.234.023-.508a1.277,1.277,0,0,0-.258-.883,1.145,1.145,0,0,0-.875-.281,1.985,1.985,0,0,0-1.445.648,4.377,4.377,0,0,0-1,1.738,6.913,6.913,0,0,0-.359,2.176,2.585,2.585,0,0,0,.223,1.215.784.784,0,0,0,.746.4,1.515,1.515,0,0,0,1.012-.445A6.2,6.2,0,0,0,90.09-2.52a5.537,5.537,0,0,0,.746-1.9Zm5.906-4.211q.094-.414.133-.66a2.928,2.928,0,0,0,.039-.457.612.612,0,0,0-.086-.355.482.482,0,0,0-.246-.176,2.467,2.467,0,0,0-.574-.078l.094-.406,1.969-.07H98.6L96.68-2.523a5.9,5.9,0,0,0-.172,1.156.787.787,0,0,0,.1.453.368.368,0,0,0,.32.141.869.869,0,0,0,.5-.191,5.49,5.49,0,0,0,.75-.73l.445.438a6.814,6.814,0,0,1-1.238,1.09,2.023,2.023,0,0,1-1.074.293A1,1,0,0,1,95.5-.246a1.447,1.447,0,0,1-.3-.949,7.655,7.655,0,0,1,.219-1.516ZM110.773-5l-2.141.438,1.484,1.9-.859.594-1.219-2.07L106.8-2.07l-.859-.594,1.484-1.9L105.273-5l.352-.977,2.047.773-.18-2.375h1.078l-.18,2.375,2.055-.773Zm11.57,3.008a6.889,6.889,0,0,1-1.422,1.6A2.32,2.32,0,0,1,119.5.117a1.552,1.552,0,0,1-1.332-.648,3.046,3.046,0,0,1-.473-1.82,6.524,6.524,0,0,1,.527-2.582,4.776,4.776,0,0,1,1.449-1.953,3.271,3.271,0,0,1,2.055-.715,3.723,3.723,0,0,1,.879.1,3.16,3.16,0,0,1,.824.34l.406-1.8q.062-.258.109-.57a3.747,3.747,0,0,0,.047-.547.612.612,0,0,0-.086-.355.482.482,0,0,0-.246-.176,2.467,2.467,0,0,0-.574-.078l.094-.406,1.961-.07h.461l-1.945,8.648a5.792,5.792,0,0,0-.172,1.156.787.787,0,0,0,.1.453.368.368,0,0,0,.32.141.869.869,0,0,0,.5-.191,5.49,5.49,0,0,0,.75-.73l.445.438a6.989,6.989,0,0,1-1.211,1.07,1.946,1.946,0,0,1-1.062.313.991.991,0,0,1-.773-.32,1.223,1.223,0,0,1-.289-.852,2.633,2.633,0,0,1,.18-.914Zm.523-2.766a5.219,5.219,0,0,0,.117-1.062,1.275,1.275,0,0,0-.258-.887,1.131,1.131,0,0,0-.859-.277,1.957,1.957,0,0,0-1.43.645,4.429,4.429,0,0,0-1,1.738,6.881,6.881,0,0,0-.363,2.18,2.585,2.585,0,0,0,.223,1.215.784.784,0,0,0,.746.4,1.26,1.26,0,0,0,.492-.105,1.985,1.985,0,0,0,.52-.34,4.054,4.054,0,0,0,.531-.57q.262-.336.48-.676a4.82,4.82,0,0,0,.406-.8,6.442,6.442,0,0,0,.32-1.121Zm8.016-5.773-.359,1.516h-1.383l.359-1.516Zm-2.516,5.266a5.77,5.77,0,0,0,.18-1.172.563.563,0,0,0-.168-.477,1.267,1.267,0,0,0-.66-.141l.086-.414,1.906-.07h.461l-1.125,5.016a5.793,5.793,0,0,0-.172,1.156.787.787,0,0,0,.1.453.368.368,0,0,0,.32.141.869.869,0,0,0,.5-.191,5.49,5.49,0,0,0,.75-.73l.445.438A6.817,6.817,0,0,1,129.75-.164a2.023,2.023,0,0,1-1.07.289,1,1,0,0,1-.812-.371,1.447,1.447,0,0,1-.3-.949,6.84,6.84,0,0,1,.219-1.516Zm10.2-1.82.719-.516.5.125-1.148,4.953a5.5,5.5,0,0,0-.172,1.156.787.787,0,0,0,.1.453.368.368,0,0,0,.32.141.869.869,0,0,0,.5-.191,5.49,5.49,0,0,0,.75-.73l.445.438a6.8,6.8,0,0,1-1.2,1.066,1.96,1.96,0,0,1-1.074.316.991.991,0,0,1-.773-.32,1.223,1.223,0,0,1-.289-.852,2.632,2.632,0,0,1,.18-.914l-.1-.031a6.889,6.889,0,0,1-1.422,1.6,2.32,2.32,0,0,1-1.422.508,1.552,1.552,0,0,1-1.332-.648,3.046,3.046,0,0,1-.473-1.82,6.524,6.524,0,0,1,.527-2.582,4.776,4.776,0,0,1,1.449-1.953,3.271,3.271,0,0,1,2.055-.715,3.809,3.809,0,0,1,.949.113A3.318,3.318,0,0,1,138.57-7.086Zm-.687,2.328a4.931,4.931,0,0,0,.094-.555Q138-5.547,138-5.82a1.277,1.277,0,0,0-.258-.883,1.145,1.145,0,0,0-.875-.281,1.985,1.985,0,0,0-1.445.648,4.377,4.377,0,0,0-1,1.738,6.913,6.913,0,0,0-.359,2.176,2.585,2.585,0,0,0,.223,1.215.784.784,0,0,0,.746.4,1.515,1.515,0,0,0,1.012-.445,6.2,6.2,0,0,0,1.023-1.27,5.537,5.537,0,0,0,.746-1.9Zm9.1-.812a1.71,1.71,0,0,0-.457-1.055,1.629,1.629,0,0,0-1.168-.359,1.519,1.519,0,0,0-1,.316,1.027,1.027,0,0,0-.383.832,1.188,1.188,0,0,0,.1.5,1.5,1.5,0,0,0,.395.473,6.87,6.87,0,0,0,.922.633,6.6,6.6,0,0,1,.789.543,2.618,2.618,0,0,1,.469.488,1.7,1.7,0,0,1,.25.512,2.368,2.368,0,0,1,.078.652,1.933,1.933,0,0,1-.371,1.191,2.2,2.2,0,0,1-1.008.738,4.055,4.055,0,0,1-1.449.242,8.237,8.237,0,0,1-1.273-.1A10.165,10.165,0,0,1,141.484-.3l.375-1.7h.609a1.618,1.618,0,0,0,.422,1.133,1.722,1.722,0,0,0,1.242.383,1.82,1.82,0,0,0,1.16-.332,1.133,1.133,0,0,0,.418-.941,1.435,1.435,0,0,0-.117-.605,1.5,1.5,0,0,0-.383-.488,6.285,6.285,0,0,0-.844-.586,6.85,6.85,0,0,1-.949-.664,2.093,2.093,0,0,1-.512-.645,1.785,1.785,0,0,1-.172-.8,1.813,1.813,0,0,1,.332-1.082,2.1,2.1,0,0,1,.949-.715,3.811,3.811,0,0,1,1.438-.25,9.348,9.348,0,0,1,1.324.086,6.181,6.181,0,0,1,1.191.3l-.352,1.641Zm8.5-3.4q.094-.414.133-.66a2.927,2.927,0,0,0,.039-.457.612.612,0,0,0-.086-.355.482.482,0,0,0-.246-.176,2.467,2.467,0,0,0-.574-.078l.094-.406,1.969-.07h.461l-1.922,8.648a5.9,5.9,0,0,0-.172,1.156.787.787,0,0,0,.1.453.368.368,0,0,0,.32.141.869.869,0,0,0,.5-.191,5.49,5.49,0,0,0,.75-.73l.445.438a6.814,6.814,0,0,1-1.238,1.09,2.023,2.023,0,0,1-1.074.293,1,1,0,0,1-.812-.371,1.447,1.447,0,0,1-.3-.949,7.655,7.655,0,0,1,.219-1.516Zm9.391,1.883.719-.516.5.125-1.148,4.953a5.5,5.5,0,0,0-.172,1.156.787.787,0,0,0,.1.453.368.368,0,0,0,.32.141.869.869,0,0,0,.5-.191,5.49,5.49,0,0,0,.75-.73l.445.438a6.8,6.8,0,0,1-1.2,1.066,1.96,1.96,0,0,1-1.074.316.991.991,0,0,1-.773-.32,1.223,1.223,0,0,1-.289-.852,2.632,2.632,0,0,1,.18-.914l-.1-.031a6.889,6.889,0,0,1-1.422,1.6,2.32,2.32,0,0,1-1.422.508,1.552,1.552,0,0,1-1.332-.648,3.046,3.046,0,0,1-.473-1.82,6.524,6.524,0,0,1,.527-2.582,4.776,4.776,0,0,1,1.449-1.953,3.271,3.271,0,0,1,2.055-.715,3.809,3.809,0,0,1,.949.113A3.318,3.318,0,0,1,164.875-7.086Zm-.687,2.328a4.931,4.931,0,0,0,.094-.555q.023-.234.023-.508a1.277,1.277,0,0,0-.258-.883,1.145,1.145,0,0,0-.875-.281,1.985,1.985,0,0,0-1.445.648,4.377,4.377,0,0,0-1,1.738,6.913,6.913,0,0,0-.359,2.176,2.585,2.585,0,0,0,.223,1.215.784.784,0,0,0,.746.4,1.515,1.515,0,0,0,1.012-.445,6.2,6.2,0,0,0,1.023-1.27,5.537,5.537,0,0,0,.746-1.9Zm5.148,4.375-.719.508-.5-.125,2.023-8.93a5.978,5.978,0,0,0,.18-1.156.513.513,0,0,0-.2-.461,1.455,1.455,0,0,0-.715-.148l.094-.406,1.977-.07h.453L170.555-5.7l.1.031a6.408,6.408,0,0,1,1.422-1.469,2.344,2.344,0,0,1,1.328-.453,1.544,1.544,0,0,1,1.324.648,3.061,3.061,0,0,1,.473,1.828,6.533,6.533,0,0,1-.52,2.535,4.83,4.83,0,0,1-1.441,1.977,3.238,3.238,0,0,1-2.062.73A3.381,3.381,0,0,1,169.336-.383Zm.688-2.336a5.065,5.065,0,0,0-.117,1.063,1.235,1.235,0,0,0,.27.891,1.222,1.222,0,0,0,.895.273A1.764,1.764,0,0,0,171.68-.6a2.1,2.1,0,0,0,.59-.348,2.932,2.932,0,0,0,.57-.637,4.893,4.893,0,0,0,.5-.973,6.909,6.909,0,0,0,.352-1.238,6.786,6.786,0,0,0,.125-1.262,2.534,2.534,0,0,0-.23-1.219.786.786,0,0,0-.738-.406,1.333,1.333,0,0,0-.738.238,3.8,3.8,0,0,0-.809.789,5.915,5.915,0,0,0-.727,1.129,6.65,6.65,0,0,0-.477,1.477ZM179.75.133a2.515,2.515,0,0,1-1.879-.68A2.671,2.671,0,0,1,177.2-2.5a6.588,6.588,0,0,1,.188-1.445,5.411,5.411,0,0,1,.813-1.937,3.916,3.916,0,0,1,1.406-1.27,3.871,3.871,0,0,1,1.836-.441,2.521,2.521,0,0,1,1.906.684,2.715,2.715,0,0,1,.656,1.957,6.62,6.62,0,0,1-.316,1.938,5.308,5.308,0,0,1-.867,1.734,3.568,3.568,0,0,1-1.316,1.059A4.131,4.131,0,0,1,179.75.133Zm-1.18-2.3a1.9,1.9,0,0,0,.355,1.27A1.345,1.345,0,0,0,180-.484a1.761,1.761,0,0,0,1.359-.687A4.943,4.943,0,0,0,182.3-3.1a8.276,8.276,0,0,0,.344-2.176,2.059,2.059,0,0,0-.328-1.27,1.21,1.21,0,0,0-1.023-.426,1.846,1.846,0,0,0-1.418.68,4.814,4.814,0,0,0-.953,1.945A8.427,8.427,0,0,0,178.57-2.164Zm10.086-3.422a6.511,6.511,0,0,1,1.473-1.523,2.515,2.515,0,0,1,1.434-.484,4.445,4.445,0,0,1,.953.086l-.375,1.75h-.8a1.808,1.808,0,0,0-.133-.508.563.563,0,0,0-.2-.25.569.569,0,0,0-.3-.07,1.067,1.067,0,0,0-.613.242,4.2,4.2,0,0,0-.746.758,6.005,6.005,0,0,0-.66.992,5.079,5.079,0,0,0-.41,1.211L187.531,0H186.18l1.133-4.953a7.312,7.312,0,0,0,.141-.727,3.687,3.687,0,0,0,.031-.43.787.787,0,0,0-.1-.453.368.368,0,0,0-.32-.141.874.874,0,0,0-.512.2,5.607,5.607,0,0,0-.738.723l-.445-.437a7.51,7.51,0,0,1,1.2-1.066,1.916,1.916,0,0,1,1.07-.316.982.982,0,0,1,.777.324,1.236,1.236,0,0,1,.285.848,2.378,2.378,0,0,1-.148.8Zm11.172-1.5.719-.516.5.125L199.9-2.523a5.5,5.5,0,0,0-.172,1.156.787.787,0,0,0,.1.453.368.368,0,0,0,.32.141.869.869,0,0,0,.5-.191,5.49,5.49,0,0,0,.75-.73l.445.438a6.8,6.8,0,0,1-1.2,1.066,1.96,1.96,0,0,1-1.074.316A.991.991,0,0,1,198.8-.2a1.223,1.223,0,0,1-.289-.852,2.632,2.632,0,0,1,.18-.914l-.1-.031a6.889,6.889,0,0,1-1.422,1.6,2.32,2.32,0,0,1-1.422.508,1.552,1.552,0,0,1-1.332-.648,3.046,3.046,0,0,1-.473-1.82,6.524,6.524,0,0,1,.527-2.582,4.776,4.776,0,0,1,1.449-1.953,3.271,3.271,0,0,1,2.055-.715,3.809,3.809,0,0,1,.949.113A3.318,3.318,0,0,1,199.828-7.086Zm-.687,2.328a4.931,4.931,0,0,0,.094-.555q.023-.234.023-.508A1.277,1.277,0,0,0,199-6.7a1.145,1.145,0,0,0-.875-.281,1.985,1.985,0,0,0-1.445.648,4.377,4.377,0,0,0-1,1.738,6.913,6.913,0,0,0-.359,2.176,2.585,2.585,0,0,0,.223,1.215.784.784,0,0,0,.746.4A1.515,1.515,0,0,0,197.3-1.25a6.2,6.2,0,0,0,1.023-1.27,5.537,5.537,0,0,0,.746-1.9Zm8.68,2.766a6.889,6.889,0,0,1-1.422,1.6,2.32,2.32,0,0,1-1.422.508,1.552,1.552,0,0,1-1.332-.648,3.046,3.046,0,0,1-.473-1.82,6.524,6.524,0,0,1,.527-2.582,4.776,4.776,0,0,1,1.449-1.953A3.271,3.271,0,0,1,207.2-7.6a3.723,3.723,0,0,1,.879.1,3.16,3.16,0,0,1,.824.34l.406-1.8q.063-.258.109-.57a3.747,3.747,0,0,0,.047-.547.612.612,0,0,0-.086-.355.482.482,0,0,0-.246-.176,2.467,2.467,0,0,0-.574-.078l.094-.406,1.961-.07h.461l-1.945,8.648a5.793,5.793,0,0,0-.172,1.156.787.787,0,0,0,.1.453.368.368,0,0,0,.32.141.869.869,0,0,0,.5-.191,5.49,5.49,0,0,0,.75-.73l.445.438a6.99,6.99,0,0,1-1.211,1.07A1.946,1.946,0,0,1,208.8.125a.991.991,0,0,1-.773-.32,1.223,1.223,0,0,1-.289-.852,2.632,2.632,0,0,1,.18-.914Zm.523-2.766a5.219,5.219,0,0,0,.117-1.062,1.275,1.275,0,0,0-.258-.887,1.131,1.131,0,0,0-.859-.277,1.957,1.957,0,0,0-1.43.645,4.429,4.429,0,0,0-1,1.738,6.881,6.881,0,0,0-.363,2.18,2.585,2.585,0,0,0,.223,1.215.784.784,0,0,0,.746.4,1.26,1.26,0,0,0,.492-.105,1.985,1.985,0,0,0,.52-.34,4.055,4.055,0,0,0,.531-.57q.262-.336.48-.676a4.82,4.82,0,0,0,.406-.8,6.443,6.443,0,0,0,.32-1.121ZM215.352.133a2.515,2.515,0,0,1-1.879-.68A2.671,2.671,0,0,1,212.8-2.5a6.588,6.588,0,0,1,.188-1.445,5.411,5.411,0,0,1,.813-1.937,3.916,3.916,0,0,1,1.406-1.27,3.871,3.871,0,0,1,1.836-.441,2.521,2.521,0,0,1,1.906.684,2.715,2.715,0,0,1,.656,1.957,6.62,6.62,0,0,1-.316,1.938,5.308,5.308,0,0,1-.867,1.734,3.568,3.568,0,0,1-1.316,1.059A4.131,4.131,0,0,1,215.352.133Zm-1.18-2.3a1.9,1.9,0,0,0,.355,1.27,1.345,1.345,0,0,0,1.074.41,1.761,1.761,0,0,0,1.359-.687A4.943,4.943,0,0,0,217.9-3.1a8.276,8.276,0,0,0,.344-2.176,2.059,2.059,0,0,0-.328-1.27,1.21,1.21,0,0,0-1.023-.426,1.846,1.846,0,0,0-1.418.68,4.814,4.814,0,0,0-.953,1.945A8.427,8.427,0,0,0,214.172-2.164ZM226.68-5.57a1.71,1.71,0,0,0-.457-1.055,1.629,1.629,0,0,0-1.168-.359,1.519,1.519,0,0,0-1,.316,1.027,1.027,0,0,0-.383.832,1.188,1.188,0,0,0,.1.5,1.5,1.5,0,0,0,.395.473,6.87,6.87,0,0,0,.922.633,6.6,6.6,0,0,1,.789.543,2.618,2.618,0,0,1,.469.488,1.7,1.7,0,0,1,.25.512,2.368,2.368,0,0,1,.078.652A1.933,1.933,0,0,1,226.3-.848a2.2,2.2,0,0,1-1.008.738,4.055,4.055,0,0,1-1.449.242,8.237,8.237,0,0,1-1.273-.1A10.165,10.165,0,0,1,221.18-.3l.375-1.7h.609a1.618,1.618,0,0,0,.422,1.133,1.722,1.722,0,0,0,1.242.383,1.82,1.82,0,0,0,1.16-.332,1.133,1.133,0,0,0,.418-.941,1.435,1.435,0,0,0-.117-.605,1.5,1.5,0,0,0-.383-.488,6.285,6.285,0,0,0-.844-.586,6.85,6.85,0,0,1-.949-.664,2.093,2.093,0,0,1-.512-.645,1.785,1.785,0,0,1-.172-.8,1.813,1.813,0,0,1,.332-1.082,2.1,2.1,0,0,1,.949-.715,3.811,3.811,0,0,1,1.438-.25,9.348,9.348,0,0,1,1.324.086,6.181,6.181,0,0,1,1.191.3l-.352,1.641Z" transform="translate(1047.009 2181)" fill="#12263f"/>
    <path id="Trazado_722935" data-name="Trazado 722935" d="M5.219-2.82,7.8-11.375h2.609L6.445,0H4L.055-11.375h2.6ZM15.867,0a2.507,2.507,0,0,1-.227-.758,2.732,2.732,0,0,1-2.133.914,3,3,0,0,1-2.059-.719,2.312,2.312,0,0,1-.816-1.812,2.389,2.389,0,0,1,1-2.062,4.915,4.915,0,0,1,2.879-.727h1.039v-.484a1.393,1.393,0,0,0-.3-.937,1.183,1.183,0,0,0-.949-.352,1.345,1.345,0,0,0-.895.273.929.929,0,0,0-.324.75H10.82a2.268,2.268,0,0,1,.453-1.359,3,3,0,0,1,1.281-.98,4.669,4.669,0,0,1,1.859-.355,3.689,3.689,0,0,1,2.48.785,2.747,2.747,0,0,1,.918,2.207v3.664a4.041,4.041,0,0,0,.336,1.82V0ZM14-1.57a1.945,1.945,0,0,0,.922-.223,1.462,1.462,0,0,0,.625-.6V-3.844H14.7q-1.7,0-1.8,1.172l-.008.133a.9.9,0,0,0,.3.7A1.153,1.153,0,0,0,14-1.57Zm9.063-.094a1.481,1.481,0,0,0,1.016-.344,1.2,1.2,0,0,0,.406-.914H26.6a2.9,2.9,0,0,1-.469,1.574A3.093,3.093,0,0,1,24.871-.238,3.949,3.949,0,0,1,23.1.156,3.67,3.67,0,0,1,20.242-1,4.56,4.56,0,0,1,19.2-4.18v-.148a4.508,4.508,0,0,1,1.039-3.117,3.627,3.627,0,0,1,2.852-1.164,3.555,3.555,0,0,1,2.543.9A3.2,3.2,0,0,1,26.6-5.3H24.484a1.551,1.551,0,0,0-.406-1.072,1.354,1.354,0,0,0-1.031-.412,1.36,1.36,0,0,0-1.191.575,3.333,3.333,0,0,0-.4,1.866v.235a3.375,3.375,0,0,0,.4,1.878A1.377,1.377,0,0,0,23.063-1.664ZM32.789,0a2.507,2.507,0,0,1-.227-.758A2.732,2.732,0,0,1,30.43.156a3,3,0,0,1-2.059-.719,2.312,2.312,0,0,1-.816-1.812,2.389,2.389,0,0,1,1-2.062,4.915,4.915,0,0,1,2.879-.727h1.039v-.484a1.393,1.393,0,0,0-.3-.937,1.183,1.183,0,0,0-.949-.352,1.345,1.345,0,0,0-.895.273.929.929,0,0,0-.324.75H27.742A2.268,2.268,0,0,1,28.2-7.273a3,3,0,0,1,1.281-.98,4.669,4.669,0,0,1,1.859-.355,3.689,3.689,0,0,1,2.48.785,2.747,2.747,0,0,1,.918,2.207v3.664a4.041,4.041,0,0,0,.336,1.82V0ZM30.922-1.57a1.945,1.945,0,0,0,.922-.223,1.462,1.462,0,0,0,.625-.6V-3.844h-.844q-1.7,0-1.8,1.172l-.008.133a.9.9,0,0,0,.3.7A1.153,1.153,0,0,0,30.922-1.57Zm9.063-.094A1.481,1.481,0,0,0,41-2.008a1.2,1.2,0,0,0,.406-.914h2.117a2.9,2.9,0,0,1-.469,1.574A3.093,3.093,0,0,1,41.793-.238a3.949,3.949,0,0,1-1.77.395A3.67,3.67,0,0,1,37.164-1,4.56,4.56,0,0,1,36.117-4.18v-.148a4.508,4.508,0,0,1,1.039-3.117,3.627,3.627,0,0,1,2.852-1.164,3.555,3.555,0,0,1,2.543.9,3.2,3.2,0,0,1,.973,2.4H41.406A1.551,1.551,0,0,0,41-6.377a1.354,1.354,0,0,0-1.031-.412,1.36,1.36,0,0,0-1.191.575,3.333,3.333,0,0,0-.4,1.866v.235a3.375,3.375,0,0,0,.4,1.878A1.377,1.377,0,0,0,39.984-1.664ZM47.2,0H44.93V-8.453H47.2ZM44.8-10.641a1.112,1.112,0,0,1,.34-.836,1.277,1.277,0,0,1,.926-.328,1.28,1.28,0,0,1,.922.328,1.105,1.105,0,0,1,.344.836,1.108,1.108,0,0,1-.348.844,1.283,1.283,0,0,1-.918.328,1.283,1.283,0,0,1-.918-.328A1.108,1.108,0,0,1,44.8-10.641ZM48.7-4.3a5.013,5.013,0,0,1,.484-2.242A3.546,3.546,0,0,1,50.582-8.07,4.069,4.069,0,0,1,52.7-8.609a3.849,3.849,0,0,1,2.793,1.047A4.2,4.2,0,0,1,56.7-4.719l.016.578A4.418,4.418,0,0,1,55.625-1.02,3.775,3.775,0,0,1,52.711.156a3.793,3.793,0,0,1-2.918-1.172A4.5,4.5,0,0,1,48.7-4.2Zm2.258.16A3.16,3.16,0,0,0,51.414-2.3a1.5,1.5,0,0,0,1.3.638,1.5,1.5,0,0,0,1.281-.63,3.457,3.457,0,0,0,.461-2.015,3.128,3.128,0,0,0-.461-1.831,1.5,1.5,0,0,0-1.3-.649,1.474,1.474,0,0,0-1.281.646A3.516,3.516,0,0,0,50.961-4.144ZM60.18-8.453l.07.977a2.951,2.951,0,0,1,2.43-1.133,2.453,2.453,0,0,1,2,.789,3.682,3.682,0,0,1,.672,2.359V0H63.094V-5.419a1.47,1.47,0,0,0-.312-1.045,1.4,1.4,0,0,0-1.039-.325,1.553,1.553,0,0,0-1.43.814V0H58.055V-8.453ZM70.953.156A4.15,4.15,0,0,1,67.926-.984a4.054,4.054,0,0,1-1.168-3.039v-.219A5.106,5.106,0,0,1,67.25-6.52a3.612,3.612,0,0,1,1.395-1.547A3.914,3.914,0,0,1,70.7-8.609a3.508,3.508,0,0,1,2.73,1.094,4.444,4.444,0,0,1,1,3.1v.922H69.047a2.1,2.1,0,0,0,.66,1.328,2,2,0,0,0,1.395.5,2.437,2.437,0,0,0,2.039-.945L74.25-1.367A3.389,3.389,0,0,1,72.875-.246,4.511,4.511,0,0,1,70.953.156ZM70.7-6.789a1.411,1.411,0,0,0-1.09.455,2.357,2.357,0,0,0-.535,1.3h3.141v-.181A1.681,1.681,0,0,0,71.8-6.377,1.456,1.456,0,0,0,70.7-6.789Zm9.594,4.453a.727.727,0,0,0-.41-.652,4.659,4.659,0,0,0-1.316-.426q-3.016-.633-3.016-2.562a2.323,2.323,0,0,1,.934-1.879,3.766,3.766,0,0,1,2.441-.754,4.053,4.053,0,0,1,2.574.758,2.388,2.388,0,0,1,.965,1.969H80.2a1.092,1.092,0,0,0-.312-.8A1.322,1.322,0,0,0,78.914-7a1.351,1.351,0,0,0-.883.258.814.814,0,0,0-.312.656.7.7,0,0,0,.355.605,3.657,3.657,0,0,0,1.2.4A9.8,9.8,0,0,1,80.7-4.7,2.336,2.336,0,0,1,82.484-2.43a2.2,2.2,0,0,1-.992,1.871A4.28,4.28,0,0,1,78.93.156a4.47,4.47,0,0,1-1.887-.379A3.166,3.166,0,0,1,75.75-1.262a2.414,2.414,0,0,1-.469-1.426h2.141a1.179,1.179,0,0,0,.445.922,1.766,1.766,0,0,0,1.109.32,1.635,1.635,0,0,0,.98-.246A.766.766,0,0,0,80.289-2.336ZM95.1-5.828H88.117V-7.672H95.1Zm0,3.383H88.117V-4.289H95.1Z" transform="translate(944.009 2194)" fill="#12263f"/>
    <path id="Trazado_722936" data-name="Trazado 722936" d="M8.508-10.115,4.109,0H1.727L6.133-9.555H.477v-1.82H8.508ZM17.75,0h-7.8V-1.547l3.68-3.922a9.078,9.078,0,0,0,1.121-1.445,2.322,2.322,0,0,0,.363-1.172,1.738,1.738,0,0,0-.383-1.191,1.382,1.382,0,0,0-1.094-.434,1.49,1.49,0,0,0-1.207.527A2.089,2.089,0,0,0,11.992-7.8H9.727a3.729,3.729,0,0,1,.5-1.9,3.5,3.5,0,0,1,1.4-1.348,4.262,4.262,0,0,1,2.055-.488,4.036,4.036,0,0,1,2.73.844A2.985,2.985,0,0,1,17.383-8.3a3.825,3.825,0,0,1-.437,1.719,9.551,9.551,0,0,1-1.5,2.039L12.859-1.82H17.75Zm9.039-4.7a5.763,5.763,0,0,1-.977,3.609A3.409,3.409,0,0,1,22.953.156,3.433,3.433,0,0,1,20.109-1.07,5.594,5.594,0,0,1,19.1-4.586V-6.68A5.687,5.687,0,0,1,20.09-10.3a3.434,3.434,0,0,1,2.848-1.234,3.437,3.437,0,0,1,2.844,1.223A5.576,5.576,0,0,1,26.789-6.8Zm-2.258-2.3a4.165,4.165,0,0,0-.387-2.061,1.307,1.307,0,0,0-1.207-.645,1.284,1.284,0,0,0-1.176.614,3.9,3.9,0,0,0-.4,1.92v2.768a4.373,4.373,0,0,0,.379,2.068,1.29,1.29,0,0,0,1.215.676,1.268,1.268,0,0,0,1.2-.649A4.268,4.268,0,0,0,24.531-4.3Z" transform="translate(1148.009 2212)" fill="#12263f"/>
    <path id="Trazado_722937" data-name="Trazado 722937" d="M0,0H226" transform="translate(1048.308 2191)" fill="none" stroke="#12263f" stroke-width="1"/>
  </g>
</svg>
