<svg xmlns="http://www.w3.org/2000/svg" xmlns:xlink="http://www.w3.org/1999/xlink" width="62.688" height="62.688" viewBox="0 0 62.688 62.688">
  <defs>
    <clipPath id="clip-path">
      <path id="path2137" d="M0-682.665H62.688v62.688H0Z" transform="translate(0 682.665)"/>
    </clipPath>
  </defs>
  <g id="g2127" transform="translate(0 682.665)">
    <g id="g2129" transform="translate(0.906 -642.626)">
      <path id="path2131" d="M-.121,0H60.731V21.731H-.133Z" transform="translate(0.133)" fill="#5ed8f6"/>
    </g>
    <g id="g2133" transform="translate(0 -682.665)">
      <g id="g2135" clip-path="url(#clip-path)">
        <g id="g2141" transform="translate(0.906 43.719)">
          <path id="path2143" d="M0-59.555a15.312,15.312,0,0,1,16.793-5.284C23.815-62.453,28.838-54.97,36.245-54.6c3.433.169,6.706-1.278,9.951-2.412s9.215-3.067,14.648,1.493v8H0Z" transform="translate(0 65.576)" fill="#ffd686"/>
        </g>
        <g id="g2145" transform="translate(10.668 43.72)">
          <path id="path2147" d="M-21.1-7.288C-14.079-4.9-9.056,2.58-1.649,2.946a13.065,13.065,0,0,0,3.075-.237c-6.445-1.353-11.2-7.812-17.63-10a14.594,14.594,0,0,0-7.031-.535,13.74,13.74,0,0,1,2.134.535" transform="translate(23.235 8.025)" fill="#f7ca6d"/>
        </g>
        <g id="g2149" transform="translate(51.368 50.887)">
          <path id="path2151" d="M0-2.183l.054.011A6.771,6.771,0,0,1,5.485,4.483v4h4.9v-8A12.251,12.251,0,0,0,0-2.183" transform="translate(0 2.404)" fill="#f7ca6d"/>
        </g>
        <g id="g2153" transform="translate(0.918 9.527)">
          <path id="path2155" d="M-418.229-176.338a4.242,4.242,0,0,0-4.875-3.5,4.242,4.242,0,0,0-3.5,4.874,4.242,4.242,0,0,0-4.875-3.5,4.242,4.242,0,0,0-3.5,4.875,4.243,4.243,0,0,0-4.875-3.5,4.243,4.243,0,0,0-3.5,4.875,4.242,4.242,0,0,0-4.874-3.5,4.242,4.242,0,0,0-3.5,4.874,4.242,4.242,0,0,0-4.874-3.5,4.242,4.242,0,0,0-3.5,4.875l-.142.023a21.281,21.281,0,0,1,17.546-24.451,21.281,21.281,0,0,1,24.451,17.546Z" transform="translate(460.518 194.168)" fill="#fe75a7"/>
        </g>
        <g id="g2157" transform="translate(43.152 27.086)">
          <path id="path2159" d="M-.542-2.691c-.015-.092-.034-.182-.055-.272.016.091.033.182.048.273Z" transform="translate(0.597 2.963)" fill="#fe5995"/>
        </g>
        <g id="g2161" transform="translate(19.776 9.528)">
          <path id="path2163" d="M0-1.4A21.306,21.306,0,0,1,17.721,13.016a4.245,4.245,0,0,1,5.656,3A21.28,21.28,0,0,0,0-1.4" transform="translate(0 1.542)" fill="#fe5995"/>
        </g>
        <g id="g2165" transform="translate(9.178 9.709)">
          <path id="path2167" d="M-94.742-1.009h-.006c-6.79,1.117-10.839,11.039-9.217,22.338a4.262,4.262,0,0,1,.183.714,4.124,4.124,0,0,1,3.5-4.752,4.158,4.158,0,0,1,4.875,3.375,4.242,4.242,0,0,1,3.5-4.875,4.242,4.242,0,0,1,4.874,3.5,4.124,4.124,0,0,1,3.5-4.752,4.161,4.161,0,0,1,4.66,2.571c-2.1-11.173-9.092-19.228-15.863-18.119" transform="translate(104.321 1.111)" fill="#e1f3ff"/>
        </g>
        <g id="g2169" transform="translate(16.874 9.786)">
          <path id="path2171" d="M-19.738-.08l-.037.006c-2.268.414-2.612,9.858-.792,21.229a4.243,4.243,0,0,1,3.548-4.416,4.242,4.242,0,0,1,4.874,3.5,4.275,4.275,0,0,1-.049-.435C-14.108,8.448-17.456-.394-19.738-.08" transform="translate(21.734 0.088)" fill="#fe75a7"/>
        </g>
        <g id="g2173" transform="translate(43.152 27.086)">
          <path id="path2175" d="M-.542-2.689c-.015-.092-.034-.182-.055-.272.016.091.033.182.048.273Z" transform="translate(0.597 2.961)" fill="#5ed8f6"/>
        </g>
        <g id="g2177" transform="translate(48.344 6.01)">
          <path id="path2179" d="M-82.424-41.213a4.167,4.167,0,0,1-4.167,4.167,4.167,4.167,0,0,1-4.167-4.167,4.167,4.167,0,0,1,4.167-4.167,4.167,4.167,0,0,1,4.167,4.167" transform="translate(90.758 45.38)" fill="#ffd500"/>
        </g>
        <g id="g2181" transform="translate(50.062 6.01)">
          <path id="path2183" d="M-24.218,0a4.147,4.147,0,0,0-2.449.8,4.161,4.161,0,0,1,1.718,3.371,4.16,4.16,0,0,1-1.718,3.371,4.147,4.147,0,0,0,2.449.8,4.167,4.167,0,0,0,4.167-4.167A4.167,4.167,0,0,0-24.218,0" transform="translate(26.667)" fill="#ffc400"/>
        </g>
        <g id="g2185" transform="translate(0.918 40.039)">
          <path id="path2187" d="M0,0H60.852" fill="none" stroke="#060606" stroke-linecap="round" stroke-linejoin="round" stroke-miterlimit="10" stroke-width="2"/>
        </g>
        <g id="g2189" transform="translate(0.918 9.527)">
          <path id="path2191" d="M-418.229-176.338a4.242,4.242,0,0,0-4.875-3.5,4.242,4.242,0,0,0-3.5,4.874,4.242,4.242,0,0,0-4.875-3.5,4.242,4.242,0,0,0-3.5,4.875,4.243,4.243,0,0,0-4.875-3.5,4.243,4.243,0,0,0-3.5,4.875,4.242,4.242,0,0,0-4.874-3.5,4.242,4.242,0,0,0-3.5,4.874,4.242,4.242,0,0,0-4.874-3.5,4.242,4.242,0,0,0-3.5,4.875l-.142.023a21.281,21.281,0,0,1,17.546-24.451,21.281,21.281,0,0,1,24.451,17.546Z" transform="translate(460.518 194.168)" fill="none" stroke="#060606" stroke-linecap="round" stroke-linejoin="round" stroke-miterlimit="10" stroke-width="2"/>
        </g>
        <g id="g2193" transform="translate(21.514 26.625)">
          <path id="path2195" d="M0,0,3.549,21.583" fill="none" stroke="#060606" stroke-linecap="round" stroke-linejoin="round" stroke-miterlimit="10" stroke-width="2"/>
        </g>
        <g id="g2197" transform="translate(9.178 9.709)">
          <path id="path2199" d="M-3.44-127.115a32.749,32.749,0,0,0,.009,9.588,4.26,4.26,0,0,1,.183.714,4.242,4.242,0,0,1,3.5-4.875,4.242,4.242,0,0,1,4.874,3.5,4.242,4.242,0,0,1,3.5-4.874,4.242,4.242,0,0,1,4.875,3.5,4.242,4.242,0,0,1,3.5-4.875,4.243,4.243,0,0,1,4.66,2.694c-2.1-11.173-9.092-19.228-15.863-18.119H5.786c-3.66.6-6.524,3.763-8.132,8.318" transform="translate(3.788 139.968)" fill="none" stroke="#060606" stroke-linecap="round" stroke-linejoin="round" stroke-miterlimit="10" stroke-width="2"/>
        </g>
        <g id="g2201" transform="translate(16.874 9.786)">
          <path id="path2203" d="M-19.738-.08l-.037.006c-2.268.414-2.612,9.858-.792,21.229a4.243,4.243,0,0,1,3.548-4.416,4.242,4.242,0,0,1,4.874,3.5,4.275,4.275,0,0,1-.049-.435C-14.108,8.448-17.456-.394-19.738-.08Z" transform="translate(21.734 0.088)" fill="none" stroke="#060606" stroke-linecap="round" stroke-linejoin="round" stroke-miterlimit="10" stroke-width="2"/>
        </g>
        <g id="g2205" transform="translate(43.152 27.086)">
          <path id="path2207" d="M-.542-2.689c-.015-.092-.034-.182-.055-.272.016.091.033.182.048.273Z" transform="translate(0.597 2.961)" fill="none" stroke="#060606" stroke-linecap="round" stroke-linejoin="round" stroke-miterlimit="10" stroke-width="2"/>
        </g>
        <g id="g2209" transform="translate(48.344 6.01)">
          <path id="path2211" d="M-82.424-41.213a4.167,4.167,0,0,1-4.167,4.167,4.167,4.167,0,0,1-4.167-4.167,4.167,4.167,0,0,1,4.167-4.167A4.167,4.167,0,0,1-82.424-41.213Z" transform="translate(90.758 45.38)" fill="none" stroke="#060606" stroke-linecap="round" stroke-linejoin="round" stroke-miterlimit="10" stroke-width="2"/>
        </g>
        <g id="g2213" transform="translate(52.511 0.918)">
          <path id="path2215" d="M0,0V2.174" fill="none" stroke="#060606" stroke-linecap="round" stroke-linejoin="round" stroke-miterlimit="10" stroke-width="2"/>
        </g>
        <g id="g2217" transform="translate(52.511 17.262)">
          <path id="path2219" d="M0,0V2.174" fill="none" stroke="#060606" stroke-linecap="round" stroke-linejoin="round" stroke-miterlimit="10" stroke-width="2"/>
        </g>
        <g id="g2221" transform="translate(57.521 3.63)">
          <path id="path2223" d="M-15.205,0l-1.537,1.537" transform="translate(16.743)" fill="none" stroke="#060606" stroke-linecap="round" stroke-linejoin="round" stroke-miterlimit="10" stroke-width="2"/>
        </g>
        <g id="g2225" transform="translate(45.964 15.187)">
          <path id="path2227" d="M-15.205,0l-1.537,1.537" transform="translate(16.743)" fill="none" stroke="#060606" stroke-linecap="round" stroke-linejoin="round" stroke-miterlimit="10" stroke-width="2"/>
        </g>
        <g id="g2229" transform="translate(59.596 10.177)">
          <path id="path2231" d="M-21.5,0h-2.174" transform="translate(23.677)" fill="none" stroke="#060606" stroke-linecap="round" stroke-linejoin="round" stroke-miterlimit="10" stroke-width="2"/>
        </g>
        <g id="g2233" transform="translate(43.252 10.177)">
          <path id="path2235" d="M-21.5,0h-2.174" transform="translate(23.677)" fill="none" stroke="#060606" stroke-linecap="round" stroke-linejoin="round" stroke-miterlimit="10" stroke-width="2"/>
        </g>
        <g id="g2237" transform="translate(57.521 15.187)">
          <path id="path2239" d="M-15.205-15.205l-1.537-1.537" transform="translate(16.743 16.743)" fill="none" stroke="#060606" stroke-linecap="round" stroke-linejoin="round" stroke-miterlimit="10" stroke-width="2"/>
        </g>
        <g id="g2241" transform="translate(45.964 3.63)">
          <path id="path2243" d="M-15.205-15.205l-1.537-1.537" transform="translate(16.743 16.743)" fill="none" stroke="#060606" stroke-linecap="round" stroke-linejoin="round" stroke-miterlimit="10" stroke-width="2"/>
        </g>
        <g id="g2245" transform="translate(3.308 52.115)">
          <path id="path2247" d="M-8.772-18.163a.919.919,0,0,0,0-1.837.919.919,0,0,0,0,1.837" transform="translate(9.659 20)" fill="#060606"/>
        </g>
        <g id="g2249" transform="translate(15.987 57.241)">
          <path id="path2251" d="M-8.773-18.163a.919.919,0,0,0,0-1.837.919.919,0,0,0,0,1.837" transform="translate(9.66 20)" fill="#060606"/>
        </g>
        <g id="g2253" transform="translate(19.182 50.295)">
          <path id="path2255" d="M-8.773-18.163a.919.919,0,0,0,0-1.837.919.919,0,0,0,0,1.837" transform="translate(9.66 20)" fill="#060606"/>
        </g>
        <g id="g2257" transform="translate(43.518 60.852)">
          <path id="path2259" d="M-8.773-18.163a.919.919,0,0,0,0-1.837.919.919,0,0,0,0,1.837" transform="translate(9.66 20)" fill="#060606"/>
        </g>
        <g id="g2261" transform="translate(54.409 55.745)">
          <path id="path2263" d="M-8.772-18.163a.919.919,0,0,0,0-1.837.919.919,0,0,0,0,1.837" transform="translate(9.659 20)" fill="#060606"/>
        </g>
        <g id="g2265" transform="translate(35.609 48.208)">
          <path id="path2267" d="M0,0H7.067" fill="none" stroke="#060606" stroke-linecap="round" stroke-linejoin="round" stroke-miterlimit="10" stroke-width="2"/>
        </g>
        <g id="g2269" transform="translate(40.884 44.453)">
          <path id="path2271" d="M0,0H15.794" fill="none" stroke="#060606" stroke-linecap="round" stroke-linejoin="round" stroke-miterlimit="10" stroke-width="2"/>
        </g>
        <g id="g2273" transform="translate(49.996 50.886)">
          <path id="path2275" d="M0-5C3.3-5.808,7.68-6.04,11.755-2.62" transform="translate(0 5.505)" fill="none" stroke="#060606" stroke-linecap="round" stroke-linejoin="round" stroke-miterlimit="10" stroke-width="2"/>
        </g>
        <g id="g2277" transform="translate(0.906 43.719)">
          <path id="path2279" d="M0-59.555a15.312,15.312,0,0,1,16.793-5.284C23.815-62.453,28.838-54.97,36.245-54.6a18.9,18.9,0,0,0,7.188-1.418" transform="translate(0 65.576)" fill="none" stroke="#060606" stroke-linecap="round" stroke-linejoin="round" stroke-miterlimit="10" stroke-width="2"/>
        </g>
      </g>
    </g>
  </g>
</svg>
