<svg xmlns="http://www.w3.org/2000/svg" width="77" height="77" viewBox="0 0 77 77">
  <g id="Grupo_969050" data-name="Grupo 969050" transform="translate(-1288.333 -170)">
    <path id="Trazado_113939" data-name="Trazado 113939" d="M38.5,0A38.5,38.5,0,1,1,0,38.5,38.5,38.5,0,0,1,38.5,0Z" transform="translate(1288.333 170)" fill="#ea526f"/>
    <g id="_019---Finance-Accounting" data-name="019---Finance-Accounting" transform="translate(1303.017 184.684)">
      <path id="Path" d="M11,25.376V41.522a1.619,1.619,0,0,0,1.615,1.615H38.449V13.129a1.619,1.619,0,0,0-.476-1.146L32.467,6.476A1.619,1.619,0,0,0,31.32,6H11Z" transform="translate(-2.119 -1.156)" fill="#ced2dc"/>
      <rect id="Rectangle" width="18" height="24" rx="2" fill="#346d94"/>
      <rect id="Rectangle-2" data-name="Rectangle" width="12" height="8" rx="1" transform="translate(3 3)" fill="#ffc306"/>
      <path id="Path-2" data-name="Path" d="M43.313,12.493h-4.7A1.619,1.619,0,0,1,37,10.879V6.18a1.628,1.628,0,0,1,.476.331l5.506,5.506A1.628,1.628,0,0,1,43.313,12.493Z" transform="translate(-7.129 -1.191)" fill="#8b93a2"/>
      <circle id="Oval" cx="10.5" cy="10.5" r="10.5" transform="translate(26 26)" fill="#ffc306"/>
      <g id="Grupo_969136" data-name="Grupo 969136" transform="translate(2.422 13.724)">
        <path id="Path-3" data-name="Path" d="M5.422,18.615H3.807a.807.807,0,0,1,0-1.615H5.422a.807.807,0,0,1,0,1.615Z" transform="translate(-3 -17)" fill="#295474"/>
        <path id="Path-4" data-name="Path" d="M5.422,22.615H3.807a.807.807,0,0,1,0-1.615H5.422a.807.807,0,0,1,0,1.615Z" transform="translate(-3 -17.771)" fill="#295474"/>
        <path id="Path-5" data-name="Path" d="M5.422,26.615H3.807a.807.807,0,1,1,0-1.615H5.422a.807.807,0,1,1,0,1.615Z" transform="translate(-3 -18.541)" fill="#295474"/>
        <path id="Path-6" data-name="Path" d="M11.422,18.615H9.807a.807.807,0,0,1,0-1.615h1.615a.807.807,0,0,1,0,1.615Z" transform="translate(-4.156 -17)" fill="#295474"/>
        <path id="Path-7" data-name="Path" d="M11.422,22.615H9.807a.807.807,0,0,1,0-1.615h1.615a.807.807,0,0,1,0,1.615Z" transform="translate(-4.156 -17.771)" fill="#295474"/>
        <path id="Path-8" data-name="Path" d="M11.422,26.615H9.807a.807.807,0,1,1,0-1.615h1.615a.807.807,0,1,1,0,1.615Z" transform="translate(-4.156 -18.541)" fill="#295474"/>
        <path id="Path-9" data-name="Path" d="M17.422,18.615H15.807a.807.807,0,0,1,0-1.615h1.615a.807.807,0,1,1,0,1.615Z" transform="translate(-5.312 -17)" fill="#295474"/>
        <path id="Path-10" data-name="Path" d="M17.422,22.615H15.807a.807.807,0,1,1,0-1.615h1.615a.807.807,0,0,1,0,1.615Z" transform="translate(-5.312 -17.771)" fill="#295474"/>
        <path id="Path-11" data-name="Path" d="M17.422,26.615H15.807a.807.807,0,1,1,0-1.615h1.615a.807.807,0,1,1,0,1.615Z" transform="translate(-5.312 -18.541)" fill="#295474"/>
      </g>
      <path id="Path-12" data-name="Path" d="M37.3,20.615h-10.5a.807.807,0,1,1,0-1.615H37.3a.807.807,0,1,1,0,1.615Z" transform="translate(-5.01 -3.661)" fill="#798291"/>
      <path id="Path-13" data-name="Path" d="M37.3,25.615h-10.5a.807.807,0,1,1,0-1.615H37.3a.807.807,0,1,1,0,1.615Z" transform="translate(-5.01 -4.624)" fill="#798291"/>
      <path id="Path-14" data-name="Path" d="M37.3,30.615h-10.5a.807.807,0,1,1,0-1.615H37.3a.807.807,0,1,1,0,1.615Z" transform="translate(-5.01 -5.588)" fill="#798291"/>
      <path id="Path-15" data-name="Path" d="M27.11,35.615h-11.3a.807.807,0,1,1,0-1.615h11.3a.807.807,0,1,1,0,1.615Z" transform="translate(-2.89 -6.551)" fill="#798291"/>
      <path id="Path-16" data-name="Path" d="M25.5,40.615H15.807a.807.807,0,1,1,0-1.615H25.5a.807.807,0,0,1,0,1.615Z" transform="translate(-2.89 -7.515)" fill="#798291"/>
      <path id="Path-17" data-name="Path" d="M24.688,45.615H15.807a.807.807,0,1,1,0-1.615h8.881a.807.807,0,0,1,0,1.615Z" transform="translate(-2.89 -8.478)" fill="#798291"/>
      <path id="Shape" d="M44.843,42.347V37.571a2.422,2.422,0,0,1,1.615,2.273.807.807,0,0,0,1.615,0,4.044,4.044,0,0,0-3.229-3.956v-.081a.807.807,0,1,0-1.615,0v.081a4.037,4.037,0,0,0,0,7.912v4.777A2.422,2.422,0,0,1,41.614,46.3.807.807,0,1,0,40,46.3a4.044,4.044,0,0,0,3.229,3.956v.081a.807.807,0,0,0,1.615,0v-.081a4.037,4.037,0,0,0,0-7.912Zm-3.229-2.5a2.422,2.422,0,0,1,1.615-2.273v4.547A2.422,2.422,0,0,1,41.614,39.844Zm3.229,8.732V44.029a2.407,2.407,0,0,1,0,4.547Z" transform="translate(-7.706 -6.744)" fill="#f49100"/>
      <path id="Shape-2" data-name="Shape" d="M42.3,53.6A11.3,11.3,0,1,1,53.6,42.3,11.3,11.3,0,0,1,42.3,53.6Zm0-20.99A9.688,9.688,0,1,0,51.99,42.3,9.688,9.688,0,0,0,42.3,32.615Z" transform="translate(-5.973 -5.973)" fill="#f49100"/>
    </g>
  </g>
</svg>
