<svg xmlns="http://www.w3.org/2000/svg" xmlns:xlink="http://www.w3.org/1999/xlink" width="213" height="213" viewBox="0 0 213 213">
  <defs>
    <filter id="Trazado_113937" x="0" y="0" width="213" height="213" filterUnits="userSpaceOnUse">
      <feOffset input="SourceAlpha"/>
      <feGaussianBlur stdDeviation="20" result="blur"/>
      <feFlood flood-color="#402d27" flood-opacity="0.31"/>
      <feComposite operator="in" in2="blur"/>
      <feComposite in="SourceGraphic"/>
    </filter>
  </defs>
  <g id="Grupo_969049" data-name="Grupo 969049" transform="translate(-1157.333 -318)">
    <g transform="matrix(1, 0, 0, 1, 1157.33, 318)" filter="url(#Trazado_113937)">
      <path id="Trazado_113937-2" data-name="Trazado 113937" d="M46.5,0A46.5,46.5,0,1,1,0,46.5,46.5,46.5,0,0,1,46.5,0Z" transform="translate(60 60)" fill="#ea526f"/>
    </g>
    <g id="signo-de-dolar" transform="translate(1239.833 400.5)">
      <g id="flat">
        <circle id="Elipse_4901" data-name="Elipse 4901" cx="22.5" cy="22.5" r="22.5" transform="translate(1.5 1.5)" fill="#fbc533"/>
        <path id="Trazado_722921" data-name="Trazado 722921" d="M24,1.5A22.4,22.4,0,0,0,13.71,3.986C8.6,8.11,4.453,14.583,4.453,21.665c0,15.1,9.841,22.641,22.268,22.641a27.414,27.414,0,0,0,11.392-2.784A22.5,22.5,0,0,0,24,1.5Z" fill="#ffd54b"/>
        <path id="Trazado_722922" data-name="Trazado 722922" d="M22.934,4.025a20.5,20.5,0,1,0,20.5,20.5,20.5,20.5,0,0,0-20.5-20.5Zm0,39.416a18.92,18.92,0,1,1,18.919-18.92,18.92,18.92,0,0,1-18.919,18.92Z" fill="#ef9c35"/>
        <path id="Trazado_722923" data-name="Trazado 722923" d="M24.027,3.491a20.5,20.5,0,1,0,20.5,20.5,20.5,20.5,0,0,0-20.5-20.5Zm0,39.416a18.92,18.92,0,1,1,18.919-18.92,18.92,18.92,0,0,1-18.919,18.92Z" fill="#fbbe3d"/>
      </g>
      <g id="Layer_1_copy" data-name="Layer 1 copy">
        <path id="Trazado_722924" data-name="Trazado 722924" d="M26.192,22.5h-1V15.621h1a3.444,3.444,0,0,1,3.44,3.44,1.5,1.5,0,0,0,3,0,6.447,6.447,0,0,0-6.44-6.44h-1V9.4a1.5,1.5,0,0,0-3,0v3.221h-1a6.44,6.44,0,1,0,0,12.879h1v6.879h-1a3.444,3.444,0,0,1-3.44-3.44,1.5,1.5,0,0,0-3,0,6.447,6.447,0,0,0,6.44,6.44h1V38.6a1.5,1.5,0,0,0,3,0V35.379h1a6.44,6.44,0,1,0,0-12.879Zm-5.007,0a3.44,3.44,0,1,1,0-6.879h1V22.5Zm5.007,9.879h-1V25.5h1a3.44,3.44,0,1,1,0,6.879Z" fill="#b5843a"/>
        <path id="Trazado_722925" data-name="Trazado 722925" d="M23.688,39.6a1,1,0,0,1-1-1V34.879h-1.5a5.947,5.947,0,0,1-5.94-5.94,1,1,0,0,1,2,0,3.944,3.944,0,0,0,3.94,3.94h1.5V25h-1.5a5.94,5.94,0,1,1,0-11.88h1.5V9.4a1,1,0,1,1,2,0v3.721h1.5a5.947,5.947,0,0,1,5.94,5.94,1,1,0,0,1-2,0,3.944,3.944,0,0,0-3.94-3.94h-1.5V23h1.5a5.94,5.94,0,1,1,0,11.879h-1.5V38.6a1,1,0,0,1-1,1Zm1-6.721h1.5a3.94,3.94,0,1,0,0-7.88h-1.5Zm-3.5-17.758a3.94,3.94,0,1,0,0,7.879h1.5V15.121Z" fill="#8f5f00"/>
        <g id="Grupo_969133" data-name="Grupo 969133">
          <path id="Trazado_722926" data-name="Trazado 722926" d="M24.188,25.285v7.879h1.5a3.909,3.909,0,0,0,2.248-.712,3.9,3.9,0,0,1-1.748.427h-1.5V25.285Z" fill="#7a4818"/>
          <path id="Trazado_722927" data-name="Trazado 722927" d="M15.512,28.272a.965.965,0,0,1,.233-.048,1,1,0,0,1,1,1,3.944,3.944,0,0,0,3.94,3.94h1.5v-.285h-1a3.944,3.944,0,0,1-3.94-3.94,1,1,0,0,0-1-1,.99.99,0,0,0-.733.333Z" fill="#7a4818"/>
          <path id="Trazado_722928" data-name="Trazado 722928" d="M23.188,8.685a1,1,0,0,1,1,1v3.721h1.5a5.947,5.947,0,0,1,5.94,5.939.987.987,0,0,1-.267.668.986.986,0,0,0,.767-.952,5.947,5.947,0,0,0-5.94-5.94h-1.5V9.4a1,1,0,0,0-1-1,.99.99,0,0,0-.732.332,1,1,0,0,1,.232-.047Z" fill="#7a4818"/>
          <path id="Trazado_722929" data-name="Trazado 722929" d="M24.188,35.164v3.721a.987.987,0,0,1-.267.667.986.986,0,0,0,.767-.952V35.164Z" fill="#7a4818"/>
          <path id="Trazado_722930" data-name="Trazado 722930" d="M18.937,15.833a3.928,3.928,0,0,0,1.748,7.452h1.5V23h-1a3.934,3.934,0,0,1-2.248-7.167Z" fill="#7a4818"/>
          <path id="Trazado_722931" data-name="Trazado 722931" d="M26.192,23h-1.5V15.406h-.5v7.879h1.5a5.934,5.934,0,0,1,3.176,10.95A5.935,5.935,0,0,0,26.192,23Z" fill="#7a4818"/>
          <path id="Trazado_722932" data-name="Trazado 722932" d="M20.685,13.406h1.5v-.285h-1a5.9,5.9,0,0,0-3.176.929,5.9,5.9,0,0,1,2.676-.644Z" fill="#7a4818"/>
        </g>
      </g>
    </g>
  </g>
</svg>
