<svg xmlns="http://www.w3.org/2000/svg" xmlns:xlink="http://www.w3.org/1999/xlink" width="200" height="200" viewBox="0 0 200 200">
  <defs>
    <filter id="Trazado_113938" x="0" y="0" width="200" height="200" filterUnits="userSpaceOnUse">
      <feOffset input="SourceAlpha"/>
      <feGaussianBlur stdDeviation="20" result="blur"/>
      <feFlood flood-color="#402d27" flood-opacity="0.192"/>
      <feComposite operator="in" in2="blur"/>
      <feComposite in="SourceGraphic"/>
    </filter>
  </defs>
  <g id="Grupo_969051" data-name="Grupo 969051" transform="translate(-890.333 -114)">
    <g transform="matrix(1, 0, 0, 1, 890.33, 114)" filter="url(#Trazado_113938)">
      <path id="Trazado_113938-2" data-name="Trazado 113938" d="M40,0A40,40,0,1,1,10.363,13.136,40,40,0,0,1,40,0Z" transform="translate(60 60)" fill="#ea526f"/>
    </g>
    <g id="bolsa-de-dinero_1_" data-name="bolsa-de-dinero(1)" transform="translate(886.046 187.999)">
      <path id="Trazado_722884" data-name="Trazado 722884" d="M99.089,119.5c-20.566,20.566-11.359,37.845,5.561,37.845s26.127-17.279,5.561-37.845l-5.561-2.843Z" transform="translate(0 -104.653)" fill="#ffca28"/>
      <path id="Trazado_722885" data-name="Trazado 722885" d="M102.906,119.5l3.653-1.867-1.908-.976L99.09,119.5c-20.566,20.566-11.359,37.845,5.561,37.845q.972,0,1.908-.076C90.886,156.017,83.128,139.279,102.906,119.5Z" transform="translate(0 -104.651)" fill="#e6b624"/>
      <path id="Trazado_722886" data-name="Trazado 722886" d="M181.221,7.269l-2.274-4.613a1.008,1.008,0,0,1,1.061-1.442l1.314.207a4.1,4.1,0,0,0,2.58-.44L184.79.5a4.2,4.2,0,0,1,3.983,0l.888.478a4.1,4.1,0,0,0,2.58.44l1.314-.207a1.008,1.008,0,0,1,1.061,1.442l-2.274,4.613-5.561,1.9Z" transform="translate(-82.132)" fill="#ffca28"/>
      <path id="Trazado_722887" data-name="Trazado 722887" d="M184.4,17.728l-2.274-4.613a1,1,0,0,1,.245-1.207,4.1,4.1,0,0,1-1.051-.028l-1.314-.207a1.008,1.008,0,0,0-1.061,1.442l2.274,4.613,5.561,1.9,1.59-.542Z" transform="translate(-82.133 -10.459)" fill="#e6b624"/>
      <path id="Trazado_722888" data-name="Trazado 722888" d="M196.569,90.933l-5.561-1.9-5.561,1.9a1.9,1.9,0,1,0,0,3.79h11.122a1.9,1.9,0,1,0,0-3.79Z" transform="translate(-86.358 -79.874)" fill="#f9a825"/>
      <g id="Grupo_969131" data-name="Grupo 969131" transform="translate(97.194 7.269)">
        <path id="Trazado_722889" data-name="Trazado 722889" d="M186.732,92.828a1.9,1.9,0,0,1,1.9-1.9L192.6,89.58l-1.59-.542-5.561,1.9a1.9,1.9,0,0,0,0,3.79h3.181A1.9,1.9,0,0,1,186.732,92.828Z" transform="translate(-183.551 -87.143)" fill="#de9621"/>
        <path id="Trazado_722890" data-name="Trazado 722890" d="M196.569,70.622H185.447a1.9,1.9,0,0,0,0,3.79h11.122a1.9,1.9,0,1,0,0-3.79Z" transform="translate(-183.552 -70.622)" fill="#de9621"/>
      </g>
      <path id="Trazado_722891" data-name="Trazado 722891" d="M186.733,72.519a1.9,1.9,0,0,1,1.9-1.9h-3.181a1.9,1.9,0,1,0,0,3.79h3.181A1.9,1.9,0,0,1,186.733,72.519Z" transform="translate(-86.358 -63.355)" fill="#c4851d"/>
      <path id="Trazado_722892" data-name="Trazado 722892" d="M191.554,196.121a1.192,1.192,0,0,1,1.2,1.2v.614a10.164,10.164,0,0,1,4.327,1.535,1.5,1.5,0,0,1,.837,1.34,1.537,1.537,0,0,1-1.563,1.535,1.615,1.615,0,0,1-.837-.251,10.14,10.14,0,0,0-2.875-1.228v5.36c4.243,1.061,6.058,2.764,6.058,5.751,0,3.071-2.4,5.109-5.946,5.444V219.1a1.192,1.192,0,0,1-1.2,1.2,1.215,1.215,0,0,1-1.228-1.2v-1.731a12.075,12.075,0,0,1-5.723-2.178,1.534,1.534,0,0,1-.754-1.34,1.535,1.535,0,0,1,2.457-1.228,9.889,9.889,0,0,0,4.131,1.87v-5.5c-4.076-1.061-5.974-2.6-5.974-5.751,0-2.987,2.373-5.053,5.862-5.332v-.586A1.216,1.216,0,0,1,191.554,196.121Zm-1.117,9.519V200.7c-1.787.168-2.68,1.117-2.68,2.345C187.757,204.217,188.288,204.942,190.437,205.64Zm2.205,3.88V214.6c1.787-.2,2.764-1.089,2.764-2.429C195.406,210.944,194.792,210.191,192.643,209.521Z" transform="translate(-86.624 -175.936)" fill="#de9621"/>
    </g>
  </g>
</svg>
