<svg id="Page-1" xmlns="http://www.w3.org/2000/svg" width="60" height="60" viewBox="0 0 60 60">
  <g id="_001---Browser" data-name="001---Browser">
    <path id="Shape" d="M59,3V9H1V3A2.006,2.006,0,0,1,3,1H57A2.006,2.006,0,0,1,59,3Z" fill="#607d8b"/>
    <path id="Shape-2" data-name="Shape" d="M57,1H54a2.006,2.006,0,0,1,2,2V9h3V3A2.006,2.006,0,0,0,57,1Z" fill="#37474f"/>
    <path id="Shape-3" data-name="Shape" d="M59,9V43a2.006,2.006,0,0,1-2,2H3a2.006,2.006,0,0,1-2-2V9Z" fill="#f5f5f5"/>
    <path id="Shape-4" data-name="Shape" d="M56,9V43a2.006,2.006,0,0,1-2,2h3a2.006,2.006,0,0,0,2-2V9Z" fill="#cfd8dc"/>
    <circle id="Oval" cx="21" cy="21" r="21" transform="translate(9 17)" fill="#02a9f4"/>
    <path id="Shape-5" data-name="Shape" d="M30,17c-.506,0-1,.04-1.5.076a20.976,20.976,0,0,1,0,41.848c.5.036.994.076,1.5.076a21,21,0,0,0,0-42Z" fill="#0377bc"/>
    <ellipse id="Oval-2" data-name="Oval" cx="11" cy="21" rx="11" ry="21" transform="translate(19 17)" fill="#00bcd4"/>
    <circle id="Oval-3" data-name="Oval" cx="1" cy="1" r="1" transform="translate(4 4)" fill="#f44335"/>
    <circle id="Oval-4" data-name="Oval" cx="1" cy="1" r="1" transform="translate(8 4)" fill="#ffdc00"/>
    <circle id="Oval-5" data-name="Oval" cx="1" cy="1" r="1" transform="translate(12 4)" fill="#60a917"/>
    <g id="Grupo_968821" data-name="Grupo 968821">
      <path id="Shape-6" data-name="Shape" d="M57,0H3A3,3,0,0,0,0,3V43a3,3,0,0,0,3,3H9.512a21.991,21.991,0,0,0,40.976,0H57a3,3,0,0,0,3-3V3A3,3,0,0,0,57,0ZM3,2H57a1,1,0,0,1,1,1V8H2V3A1,1,0,0,1,3,2ZM18.027,39a37.885,37.885,0,0,0,1.184,8.731,60.822,60.822,0,0,0-5.98,1.131A19.847,19.847,0,0,1,10.051,39ZM31,28.986c2.656-.032,5.259-.185,7.762-.462A35.511,35.511,0,0,1,39.974,37H31Zm0-2V18.1c2.913.61,5.5,3.853,7.141,8.472C35.834,26.819,33.442,26.956,31,26.986ZM29,18.1v8.881c-2.442-.03-4.834-.167-7.141-.409C23.5,21.958,26.087,18.715,29,18.1Zm0,10.881V37H20.026a35.511,35.511,0,0,1,1.212-8.476C23.741,28.8,26.344,28.954,29,28.986ZM20.026,39H29v8.014c-2.656.032-5.259.185-7.762.462A35.511,35.511,0,0,1,20.026,39ZM29,49.014V57.9c-2.913-.61-5.5-3.853-7.141-8.472C24.166,49.181,26.558,49.044,29,49.014ZM31,57.9V49.014c2.442.03,4.834.167,7.141.409C36.5,54.042,33.913,57.285,31,57.9Zm0-10.881V39h8.974a35.511,35.511,0,0,1-1.212,8.476c-2.5-.276-5.106-.43-7.762-.462ZM41.973,39h7.976a19.847,19.847,0,0,1-3.18,9.862,60.822,60.822,0,0,0-5.98-1.131A37.885,37.885,0,0,0,41.973,39Zm0-2a37.885,37.885,0,0,0-1.184-8.731,60.822,60.822,0,0,0,5.98-1.131A19.847,19.847,0,0,1,49.949,37ZM40.211,26.329a19.967,19.967,0,0,0-4.149-7.384A20.061,20.061,0,0,1,45.5,25.384c-1.681.382-3.452.7-5.289.945Zm-20.422,0c-1.837-.248-3.608-.563-5.29-.945a20.061,20.061,0,0,1,9.439-6.439,19.967,19.967,0,0,0-4.149,7.384Zm-6.558.809a60.822,60.822,0,0,0,5.98,1.131A37.885,37.885,0,0,0,18.027,37H10.051A19.847,19.847,0,0,1,13.231,27.138ZM14.5,50.616c1.682-.382,3.453-.7,5.29-.945a19.967,19.967,0,0,0,4.149,7.384A20.061,20.061,0,0,1,14.5,50.616Zm21.563,6.439a19.967,19.967,0,0,0,4.149-7.384c1.837.248,3.608.563,5.29.945a20.061,20.061,0,0,1-9.44,6.439ZM57,44H51.161A22,22,0,1,0,8.839,44H3a1,1,0,0,1-1-1V10H58V43a1,1,0,0,1-1,1Z"/>
      <path id="Shape-7" data-name="Shape" d="M27,6h6a1,1,0,0,0,0-2H27a1,1,0,0,0,0,2Z"/>
      <path id="Shape-8" data-name="Shape" d="M44,6H55a1,1,0,0,0,0-2H44a1,1,0,0,0,0,2Z"/>
      <path id="Shape-9" data-name="Shape" d="M5,15H7a1,1,0,0,0,0-2H5a1,1,0,0,0,0,2Z"/>
      <path id="Shape-10" data-name="Shape" d="M7,21H5a1,1,0,0,0,0,2H7a1,1,0,0,0,0-2Z"/>
      <path id="Shape-11" data-name="Shape" d="M20,13H11a1,1,0,0,0,0,2h9a1,1,0,0,0,0-2Z"/>
      <path id="Shape-12" data-name="Shape" d="M13,17H5a1,1,0,0,0,0,2h8a1,1,0,0,0,0-2Z"/>
    </g>
  </g>
</svg>
