<svg xmlns="http://www.w3.org/2000/svg" width="100" height="100" viewBox="0 0 100 100">
  <g id="Grupo_80119" data-name="Grupo 80119" transform="translate(-209 -1333)">
    <circle id="Elipse_4717" data-name="Elipse 4717" cx="50" cy="50" r="50" transform="translate(209 1333)" fill="#b3eeef"/>
    <g id="subasta" transform="translate(226 1352)">
      <path id="Trazado_722546" data-name="Trazado 722546" d="M62.707,48.793,51.164,37.25,52,36.414l.293.293a1,1,0,0,0,1.414,0l3-3a1,1,0,0,0,0-1.414L51,26.586V8a7.008,7.008,0,0,0-7-7H6A5.006,5.006,0,0,0,1,6v8a1,1,0,0,0,1,1H9V58a5.006,5.006,0,0,0,5,5H50a5.006,5.006,0,0,0,5-5V56a1,1,0,0,0-1-1H51V44.914l7.793,7.793a1,1,0,0,0,1.414,0l2.5-2.5A1,1,0,0,0,62.707,48.793ZM45,40.586,41.414,37,47,31.414,50.586,35ZM44.586,43,43,44.586,37.414,39,39,37.414ZM53,34.586,47.414,29,49,27.414,54.586,33ZM9,13H3V6A3,3,0,0,1,9,6ZM53,58a3,3,0,0,1-3,3H18a4.973,4.973,0,0,0,1-3V57H53Zm-4-3H18a1,1,0,0,0-1,1v2a3,3,0,0,1-6,0V6A4.948,4.948,0,0,0,9.974,3H44a5.006,5.006,0,0,1,5,5V25a1,1,0,0,0-.707.293l-3,3a1,1,0,0,0,0,1.414l.293.293L40,35.586l-.293-.293a1,1,0,0,0-1.414,0l-3,3a1,1,0,0,0,0,1.414l7,7a1,1,0,0,0,1.414,0l3-3a1,1,0,0,0,0-1.414L46.414,42l.836-.836L49,42.914Zm10.5-4.414L48.664,39.75l1.086-1.086L60.586,49.5Z" fill="#9f0925"/>
      <path id="Trazado_722547" data-name="Trazado 722547" d="M14,19H47v2H14Z" fill="#9f0925"/>
      <path id="Trazado_722548" data-name="Trazado 722548" d="M14,27H43v2H14Z" fill="#9f0925"/>
      <path id="Trazado_722549" data-name="Trazado 722549" d="M14,23H47v2H14Z" fill="#9f0925"/>
      <path id="Trazado_722550" data-name="Trazado 722550" d="M14,11H47v2H14Z" fill="#9f0925"/>
      <path id="Trazado_722551" data-name="Trazado 722551" d="M14,7H47V9H14Z" fill="#9f0925"/>
      <path id="Trazado_722552" data-name="Trazado 722552" d="M14,15H47v2H14Z" fill="#9f0925"/>
      <path id="Trazado_722553" data-name="Trazado 722553" d="M14,31H41v2H14Z" fill="#9f0925"/>
      <path id="Trazado_722554" data-name="Trazado 722554" d="M22,35a9,9,0,1,0,9,9A9.01,9.01,0,0,0,22,35Zm0,16a7,7,0,1,1,7-7A7.008,7.008,0,0,1,22,51Z" fill="#9f0925"/>
      <path id="Trazado_722555" data-name="Trazado 722555" d="M22,39a5,5,0,1,0,5,5A5.006,5.006,0,0,0,22,39Zm0,8a3,3,0,1,1,3-3A3,3,0,0,1,22,47Z" fill="#9f0925"/>
      <path id="Trazado_722556" data-name="Trazado 722556" d="M39,49a1,1,0,0,0-1.832-.555l-.336.5A4.6,4.6,0,0,1,33,51v2a6.594,6.594,0,0,0,4.612-1.875A4,4,0,0,0,41,53h4V51H41A2,2,0,0,1,39,49Z" fill="#9f0925"/>
    </g>
  </g>
</svg>
