<svg xmlns="http://www.w3.org/2000/svg" width="100" height="100" viewBox="0 0 100 100">
  <g id="Grupo_969045" data-name="Grupo 969045" transform="translate(-435 -1280)">
    <circle id="Elipse_4712" data-name="Elipse 4712" cx="50" cy="50" r="50" transform="translate(435 1280)" fill="#b3eeef"/>
    <g id="comando-de-voz" transform="translate(454 1299)">
      <path id="Trazado_722568" data-name="Trazado 722568" d="M44.382,46.407,31.656,42.872V39.811l2.682.8,1.417.042a5.793,5.793,0,0,0,5.787-5.787,3.83,3.83,0,0,1,.4-1.7l1.2-2.4A2.471,2.471,0,0,0,45,26.819l-.369-.491a10.575,10.575,0,0,1-2.1-6.308A6.014,6.014,0,0,0,41.78,17.1l.327-.327A11.49,11.49,0,0,0,45.5,8.6a11.643,11.643,0,0,0-2.313-6.941L41.935,0,41.3.159A65.744,65.744,0,0,1,25.368,2.106h-.543a15.9,15.9,0,0,0-13.86,23.7l3.451,5.129a19.911,19.911,0,0,1,2.375,4.831,19.931,19.931,0,0,1,1.025,6.314v.791L5.091,46.407A6.941,6.941,0,0,0,.024,53.074v8.342H49.449V53.074a6.941,6.941,0,0,0-5.067-6.668ZM30.838,44.7l.716.2L30.09,50.752l-3.7-3.087ZM43.05,27.514l.368.49a.494.494,0,0,1-.394.792H41.918l-1.742,3.487a5.8,5.8,0,0,0-.612,2.589,3.814,3.814,0,0,1-3.81,3.81h-.988L25.02,35.757l-.568,1.894,5.226,1.568v3.876l-4.943,3.295-4.943-3.295V42.081a22.043,22.043,0,0,0-.2-2.8l.364-.365a12.837,12.837,0,0,0,3.785-9.137V28.8H21.771a1.977,1.977,0,1,1,0-3.954h1.977V22.57a6.624,6.624,0,0,1,6.625-6.625h6.106a4.074,4.074,0,0,1,4.074,4.074,12.566,12.566,0,0,0,2.5,7.495ZM18.635,44.7l4.453,2.969-3.7,3.087L17.919,44.9ZM16.057,29.833,12.65,24.775A13.928,13.928,0,0,1,24.825,4.083h.543A67.686,67.686,0,0,0,41.143,2.233l.458.611A9.654,9.654,0,0,1,43.518,8.6a9.53,9.53,0,0,1-2.808,6.781l-.167.167a6,6,0,0,0-4.064-1.578H30.373a8.6,8.6,0,0,0-8.6,8.6v.294a3.954,3.954,0,0,0-.043,7.908,10.843,10.843,0,0,1-2.562,6.1q-.214-.872-.5-1.727a21.914,21.914,0,0,0-2.611-5.309ZM47.472,59.439H2V53.074a4.959,4.959,0,0,1,3.62-4.762l10.392-2.886,2.216,8.862,6.507-5.423,6.507,5.424,2.216-8.862,10.392,2.886a4.956,4.956,0,0,1,3.62,4.762Zm0,0" transform="translate(-0.024 0)" fill="#9f0925"/>
      <path id="Trazado_722569" data-name="Trazado 722569" d="M453.3,169.855l-1.4,1.4a11.861,11.861,0,0,1,0,16.775l1.4,1.4a13.836,13.836,0,0,0,0-19.57Zm0,0" transform="translate(-396.067 -148.867)" fill="#9f0925"/>
      <path id="Trazado_722570" data-name="Trazado 722570" d="M430.679,192.48l-1.4,1.4a7.909,7.909,0,0,1,0,11.184l1.4,1.4a9.885,9.885,0,0,0,0-13.979Zm0,0" transform="translate(-376.241 -168.697)" fill="#9f0925"/>
      <path id="Trazado_722571" data-name="Trazado 722571" d="M408.054,215.1l-1.4,1.4a3.957,3.957,0,0,1,0,5.593l1.4,1.4a5.933,5.933,0,0,0,0-8.388Zm0,0" transform="translate(-356.412 -188.526)" fill="#9f0925"/>
    </g>
  </g>
</svg>
