<svg xmlns="http://www.w3.org/2000/svg" width="100" height="100" viewBox="0 0 100 100">
  <g id="Grupo_969149" data-name="Grupo 969149" transform="translate(-266 -703)">
    <circle id="Elipse_4712" data-name="Elipse 4712" cx="50" cy="50" r="50" transform="translate(266 703)" fill="#b3eeef"/>
    <g id="_06_Cash_Report" data-name="06 Cash Report" transform="translate(284 721)">
      <path id="Trazado_722604" data-name="Trazado 722604" d="M42,33H38a1,1,0,0,0,0,2h4a1,1,0,0,0,0-2Z" fill="#9f0925"/>
      <path id="Trazado_722605" data-name="Trazado 722605" d="M24,35H34a1,1,0,0,0,0-2H24a1,1,0,0,0,0,2Z" fill="#9f0925"/>
      <path id="Trazado_722606" data-name="Trazado 722606" d="M42,39H32a1,1,0,0,0,0,2H42a1,1,0,0,0,0-2Z" fill="#9f0925"/>
      <path id="Trazado_722607" data-name="Trazado 722607" d="M28,39H24a1,1,0,0,0,0,2h4a1,1,0,0,0,0-2Z" fill="#9f0925"/>
      <path id="Trazado_722608" data-name="Trazado 722608" d="M32,21h2a2,2,0,0,1,0,4H30a1,1,0,0,0,0,2h2v1a1,1,0,0,0,2,0V27a4,4,0,0,0,0-8H32a2,2,0,0,1,0-4h4a1,1,0,0,0,0-2H34V12a1,1,0,0,0-2,0v1a4,4,0,0,0,0,8Z" fill="#9f0925"/>
      <path id="Trazado_722609" data-name="Trazado 722609" d="M54,3H20a5.006,5.006,0,0,0-5,5V27.586L5.879,36.707A2.978,2.978,0,0,0,5,38.829V59a2,2,0,0,0,2,2h8a2,2,0,0,0,2-2V56a4,4,0,0,0,4-4V49H49a2,2,0,0,0,2-2V24h6a2,2,0,0,0,2-2V8a5.006,5.006,0,0,0-5-5ZM19,52a2,2,0,0,1-2,2,2,2,0,0,0-2,2v3H7V38.829a1,1,0,0,1,.293-.708L15,30.414v6.172L9.293,42.293a1,1,0,1,0,1.414,1.414l6-6,.379-.379a1.106,1.106,0,0,1,.593-.289,1.159,1.159,0,0,1,.2-.039A1.122,1.122,0,0,1,19,38.121a1.159,1.159,0,0,1-.039.2,1.106,1.106,0,0,1-.289.593l-3.379,3.379A1,1,0,0,0,15,43v5a2,2,0,0,1-2,2,1,1,0,0,0,0,2,4,4,0,0,0,3.858-3H19Zm30-5H17V43.414l3.086-3.086a3.106,3.106,0,0,0,.652-.964c.007-.016.018-.03.025-.047.033-.08.049-.166.076-.249a3.091,3.091,0,0,0-3.509-4.014c-.051.009-.1.021-.15.032s-.12.021-.179.039V8a3,3,0,0,1,3-3H50c-.028.038-.049.083-.077.122-.059.083-.11.171-.164.258a4.917,4.917,0,0,0-.283.52q-.069.15-.129.3a5.1,5.1,0,0,0-.184.593c-.024.094-.053.186-.071.282A4.964,4.964,0,0,0,49,8Zm8-25H51V8a3,3,0,0,1,6,0Z" fill="#9f0925"/>
    </g>
  </g>
</svg>
