<svg xmlns="http://www.w3.org/2000/svg" width="100" height="100" viewBox="0 0 100 100">
  <g id="Grupo_969044" data-name="Grupo 969044" transform="translate(-1065 -1280)">
    <circle id="Elipse_4712" data-name="Elipse 4712" cx="50" cy="50" r="50" transform="translate(1065 1280)" fill="#b3eeef"/>
    <g id="contrato" transform="translate(1085 1300)">
      <path id="Trazado_722557" data-name="Trazado 722557" d="M227.554,98.216a2.967,2.967,0,0,0-5.437-.712l-.494.86a.988.988,0,0,0-1.344.356L217.768,103l-.86-.494a.988.988,0,1,0-.988,1.71l.86.494-8.4,14.561-2.076,5.546-.989,1.848a2.966,2.966,0,0,0,.158,3.2l-2.224,2.728-.623-1.561a1.977,1.977,0,0,0-3.529-.277l-.356.6-.336-3.954a1.977,1.977,0,0,0-3.845-.464l-2.432,7.3a.988.988,0,0,0,.623,1.246.856.856,0,0,0,.306.079.988.988,0,0,0,.939-.672l2.422-7.3.346,4.013a1.977,1.977,0,0,0,3.667.85l.366-.6.613,1.552a1.977,1.977,0,0,0,3.381.5l2.3-2.916a3.044,3.044,0,0,0,.781.1,2.966,2.966,0,0,0,2.58-1.463l.988-1.651,3.766-4.577,8.491-14.739.86.494a.991.991,0,0,1,.366,1.354l-3.954,6.85a.981.981,0,1,0,1.671,1.028l3.954-6.85a2.964,2.964,0,0,0-1.087-4.053l-.86-.494,2.471-4.28a.989.989,0,0,0-.356-1.344l.494-.86a2.964,2.964,0,0,0,.3-2.293Zm-3.727.277a.988.988,0,0,1,.6-.464,1.038,1.038,0,0,1,.751.1.989.989,0,0,1,.465.6,1.038,1.038,0,0,1-.1.751l-.494.86-1.72-.989Zm-13.473,27.6-.494-.287-1.463-.85,1.4-3.756,3.114,1.8Zm-2.966,2.856a.988.988,0,0,1-.3-1.295l.494-.86,1.72.989-.494.85a.988.988,0,0,1-1.423.316Zm6.653-7.572-3.42-1.977,7.908-13.7,3.42,1.977Zm8.9-15.411-3.42-1.977,1.977-3.42,3.42,1.977Zm0,0" transform="translate(-168.343 -84.16)" fill="#9f0925"/>
      <path id="Trazado_722558" data-name="Trazado 722558" d="M74.593,356.834l-3.5,3.49-2.1-2.1a.989.989,0,1,0-1.394,1.4l2.1,2.1a1.993,1.993,0,0,0,2.8,0l3.489-3.5a.989.989,0,0,0-1.394-1.394Zm0,0" transform="translate(-58.995 -312.539)" fill="#9f0925"/>
      <path id="Trazado_722559" data-name="Trazado 722559" d="M32,320.443a8.4,8.4,0,0,0,16.8,0,.989.989,0,1,0-1.977,0,6.426,6.426,0,1,1-2.57-5.14.989.989,0,0,0,1.186-1.582A8.4,8.4,0,0,0,32,320.443Zm0,0" transform="translate(-28.046 -273.489)" fill="#9f0925"/>
      <path id="Trazado_722560" data-name="Trazado 722560" d="M98.69,50.016a.988.988,0,1,0,0-1.977h-25.7a.989.989,0,0,0-.989.988v3.954a.988.988,0,0,0,.989.988h25.7a.989.989,0,1,0,0-1.977H73.977V50.016Zm0,0" transform="translate(-63.103 -42.108)" fill="#9f0925"/>
      <path id="Trazado_722561" data-name="Trazado 722561" d="M96.988,112.039a.988.988,0,1,0,0,1.977h19.77a.988.988,0,1,0,0-1.977Zm0,0" transform="translate(-84.138 -98.2)" fill="#9f0925"/>
      <path id="Trazado_722562" data-name="Trazado 722562" d="M150.736,168.039H128.988a.988.988,0,1,0,0,1.977h21.747a.988.988,0,1,0,0-1.977Zm0,0" transform="translate(-112.184 -147.281)" fill="#9f0925"/>
      <path id="Trazado_722563" data-name="Trazado 722563" d="M77.747,217.027a.989.989,0,0,0-.989-.988H56.988a.989.989,0,0,0,0,1.977h19.77A.988.988,0,0,0,77.747,217.027Zm0,0" transform="translate(-49.08 -189.349)" fill="#9f0925"/>
      <path id="Trazado_722564" data-name="Trazado 722564" d="M255.908,216.039h-6.92a.989.989,0,0,0,0,1.977h6.92a.989.989,0,0,0,0-1.977Zm0,0" transform="translate(-217.356 -189.349)" fill="#9f0925"/>
      <path id="Trazado_722565" data-name="Trazado 722565" d="M66.874,258.016a.988.988,0,1,0,0-1.977H56.988a.988.988,0,1,0,0,1.977Zm0,0" transform="translate(-49.08 -224.407)" fill="#9f0925"/>
      <path id="Trazado_722566" data-name="Trazado 722566" d="M168.988,258.016h6.92a.988.988,0,1,0,0-1.977h-6.92a.988.988,0,1,0,0,1.977Zm0,0" transform="translate(-147.241 -224.407)" fill="#9f0925"/>
      <path id="Trazado_722567" data-name="Trazado 722567" d="M44.483,45.51a.989.989,0,0,0-.989.988v9.885a.988.988,0,0,1-.989.989H2.966a.988.988,0,0,1-.989-.989V3a.989.989,0,0,1,.989-.988h39.54A.989.989,0,0,1,43.494,3V21.569a.989.989,0,0,0,1.977,0V3A2.966,2.966,0,0,0,42.506.039H2.966A2.966,2.966,0,0,0,0,3V56.383a2.965,2.965,0,0,0,2.966,2.965h39.54a2.965,2.965,0,0,0,2.966-2.965V46.5A.989.989,0,0,0,44.483,45.51Zm0,0" transform="translate(0 -0.039)" fill="#9f0925"/>
    </g>
  </g>
</svg>
