<svg xmlns="http://www.w3.org/2000/svg" width="100" height="100" viewBox="0 0 100 100">
  <g id="Grupo_969151" data-name="Grupo 969151" transform="translate(-686 -703)">
    <circle id="Elipse_4883" data-name="Elipse 4883" cx="50" cy="50" r="50" transform="translate(686 703)" fill="#b3eeef"/>
    <g id="_20_Growth" data-name="20 Growth" transform="translate(704.067 721)">
      <path id="Trazado_722610" data-name="Trazado 722610" d="M55.22,45.236a1.006,1.006,0,0,0-1.238.687A7.03,7.03,0,0,1,47.252,51a1,1,0,1,0,0,2,9.041,9.041,0,0,0,8.654-6.526,1,1,0,0,0-.686-1.238Z" fill="#9f0925"/>
      <path id="Trazado_722611" data-name="Trazado 722611" d="M48,31a12.9,12.9,0,0,0-10.423,5.275A12.881,12.881,0,0,0,33,35.051V24h1A11.013,11.013,0,0,0,45,13V11a1,1,0,0,0-1-1H42a10.99,10.99,0,0,0-9,4.7V14A11.013,11.013,0,0,0,22,3H20a1,1,0,0,0-1,1V6A11.013,11.013,0,0,0,30,17h1v5.026A4.948,4.948,0,0,0,28,21H26a1,1,0,0,0-1,1v2a5.006,5.006,0,0,0,5,5h1v6.051a12.881,12.881,0,0,0-4.577,1.224,13.011,13.011,0,1,0-4.856,19.448,12.952,12.952,0,0,0,20.866,0A12.99,12.99,0,1,0,48,31ZM42,12h1v1a9.01,9.01,0,0,1-9,9H33V21a9.01,9.01,0,0,1,9-9ZM21,6V5h1a9.01,9.01,0,0,1,9,9v1H30a9.01,9.01,0,0,1-9-9Zm9,21a3,3,0,0,1-3-3V23h1a3,3,0,0,1,3,3v1ZM20.49,54.046a11,11,0,1,1,4.2-16.8A13.218,13.218,0,0,0,19,48a13.514,13.514,0,0,0,1.49,6.046ZM32,59A11,11,0,1,1,43,48,11,11,0,0,1,32,59Zm16-4a11.025,11.025,0,0,1-4.49-.954A13.525,13.525,0,0,0,45,48a13.191,13.191,0,0,0-5.685-10.752A11,11,0,1,1,48,55Z" fill="#9f0925"/>
      <path id="Trazado_722612" data-name="Trazado 722612" d="M13.068,35.269a9.061,9.061,0,0,0-5.629,4.264,1,1,0,1,0,1.735,1,7.055,7.055,0,0,1,4.379-3.321,1,1,0,0,0-.485-1.939Z" fill="#9f0925"/>
      <path id="Trazado_722613" data-name="Trazado 722613" d="M16,28a4,4,0,1,0-4-4A4,4,0,0,0,16,28Zm0-6a2,2,0,1,1-2,2A2,2,0,0,1,16,22Z" fill="#9f0925"/>
      <path id="Trazado_722614" data-name="Trazado 722614" d="M48,28a4,4,0,1,0-4-4A4,4,0,0,0,48,28Zm0-6a2,2,0,1,1-2,2A2,2,0,0,1,48,22Z" fill="#9f0925"/>
      <path id="Trazado_722615" data-name="Trazado 722615" d="M33,47H31a2,2,0,0,1,0-4h4a1,1,0,0,0,0-2H33V40a1,1,0,0,0-2,0v1a4,4,0,0,0,0,8h2a2,2,0,0,1,0,4H29a1,1,0,0,0,0,2h2v1a1,1,0,0,0,2,0V55a4,4,0,0,0,0-8Z" fill="#9f0925"/>
    </g>
  </g>
</svg>
