<svg xmlns="http://www.w3.org/2000/svg" width="57.99" height="57.98" viewBox="0 0 57.99 57.98">
  <g id="publicalo" transform="translate(0.01)">
    <path id="Trazado_722618" data-name="Trazado 722618" d="M241.689,11.891V0H214.4L211,15.288Z" transform="translate(-187.106)" fill="#ff755c"/>
    <path id="Trazado_722619" data-name="Trazado 722619" d="M27.292,0H0V11.891l27.292,3.4Z" fill="#ff9356"/>
    <path id="Trazado_722620" data-name="Trazado 722620" d="M143.457,105,131,145.994h39.748V105Z" transform="translate(-116.165 -93.109)" fill="#ffb14e"/>
    <rect id="Rectángulo_36638" data-name="Rectángulo 36638" width="28" height="41" transform="translate(-0.01 11.99)" fill="#ffce47"/>
    <path id="Trazado_722621" data-name="Trazado 722621" d="M236.854,316H223.265L221,317.7l2.265,1.7h13.589Z" transform="translate(-195.973 -280.215)" fill="#3a2f4d"/>
    <rect id="Rectángulo_36639" data-name="Rectángulo 36639" width="15" height="3" transform="translate(12.99 35.99)" fill="#5b3256"/>
    <path id="Trazado_722622" data-name="Trazado 722622" d="M236.854,256H223.265L221,257.7l2.265,1.7h13.589Z" transform="translate(-195.973 -227.01)" fill="#3a2f4d"/>
    <rect id="Rectángulo_36640" data-name="Rectángulo 36640" width="15" height="4" transform="translate(12.99 28.99)" fill="#5b3256"/>
    <path id="Trazado_722623" data-name="Trazado 722623" d="M236.854,196H223.265L221,197.7l2.265,1.7h13.589Z" transform="translate(-195.973 -173.804)" fill="#3a2f4d"/>
    <rect id="Rectángulo_36641" data-name="Rectángulo 36641" width="15" height="3" transform="translate(12.99 21.99)" fill="#5b3256"/>
    <path id="Trazado_722624" data-name="Trazado 722624" d="M251.9,422l-3.4,5.1,3.4,5.1h21.346a5.1,5.1,0,0,0,5.1-5.1V422Z" transform="translate(-220.359 -374.211)" fill="#ff755c"/>
    <path id="Trazado_722625" data-name="Trazado 722625" d="M50.1,422,45,432.192H71.442V422Z" transform="translate(-39.904 -374.211)" fill="#ff9356"/>
    <path id="Trazado_722626" data-name="Trazado 722626" d="M0,422v5.1a5.1,5.1,0,1,0,10.192,0V422Z" transform="translate(0 -374.211)" fill="#ffce47"/>
  </g>
</svg>
