<svg xmlns="http://www.w3.org/2000/svg" xmlns:xlink="http://www.w3.org/1999/xlink" width="100" height="100" viewBox="0 0 100 100">
  <defs>
    <clipPath id="clip-path">
      <path id="path1840" d="M0-682.665H56.009v56.009H0Z" transform="translate(0 682.665)" fill="none"/>
    </clipPath>
  </defs>
  <g id="Grupo_969078" data-name="Grupo 969078" transform="translate(-750 -3116)">
    <circle id="Elipse_4712" data-name="Elipse 4712" cx="50" cy="50" r="50" transform="translate(750 3116)" fill="#b3eeef"/>
    <g id="g1830" transform="translate(772 3138)">
      <g id="g1832" transform="translate(22.527 46.379)">
        <path id="path1834" d="M-129.652,0H-141.24" transform="translate(141.24)" fill="none" stroke="#9f0925" stroke-linecap="round" stroke-linejoin="round" stroke-miterlimit="10" stroke-width="2"/>
      </g>
      <g id="g1836" transform="translate(0 0)">
        <g id="g1838" clip-path="url(#clip-path)">
          <g id="g1844" transform="translate(1.094 42.004)">
            <path id="path1846" d="M-129.652-48.958H-141.24v-4.376h30.661" transform="translate(141.24 53.333)" fill="none" stroke="#9f0925" stroke-linecap="round" stroke-linejoin="round" stroke-miterlimit="10" stroke-width="2"/>
          </g>
        </g>
      </g>
      <g id="g1848" transform="translate(7.222 23.782)">
        <path id="path1850" d="M0-69.238v-6.188" transform="translate(0 75.426)" fill="none" stroke="#9f0925" stroke-linecap="round" stroke-linejoin="round" stroke-miterlimit="10" stroke-width="2"/>
      </g>
      <g id="g1852" transform="translate(7.222 9.86)">
        <path id="path1854" d="M0-69.25V-75.44" transform="translate(0 75.44)" fill="none" stroke="#9f0925" stroke-linecap="round" stroke-linejoin="round" stroke-miterlimit="10" stroke-width="2"/>
      </g>
      <path id="path1856" d="M65.742-479.322H61.367v-7.733h4.376Z" transform="translate(-56.332 503.104)" fill="none" stroke="#9f0925" stroke-linejoin="round" stroke-miterlimit="10" stroke-width="2"/>
      <g id="g1858" transform="translate(16.247 30.346)">
        <path id="path1860" d="M0-57v-5.094" transform="translate(0 62.093)" fill="none" stroke="#9f0925" stroke-linecap="round" stroke-linejoin="round" stroke-miterlimit="10" stroke-width="2"/>
      </g>
      <g id="g1862" transform="translate(16.247 15.329)">
        <path id="path1864" d="M0-81.49v-7.283" transform="translate(0 88.773)" fill="none" stroke="#9f0925" stroke-linecap="round" stroke-linejoin="round" stroke-miterlimit="10" stroke-width="2"/>
      </g>
      <path id="path1866" d="M175.742-399.322h-4.376v-7.733h4.376Z" transform="translate(-157.307 429.667)" fill="none" stroke="#9f0925" stroke-linejoin="round" stroke-miterlimit="10" stroke-width="2"/>
      <g id="g1868" transform="translate(25.272 17.218)">
        <path id="path1870" d="M0-93.717v-8.376" transform="translate(0 102.093)" fill="none" stroke="#9f0925" stroke-linecap="round" stroke-linejoin="round" stroke-miterlimit="10" stroke-width="2"/>
      </g>
      <g id="g1872" transform="translate(25.272 5.484)">
        <path id="path1874" d="M0-44.772v-4" transform="translate(0 48.773)" fill="none" stroke="#9f0925" stroke-linecap="round" stroke-linejoin="round" stroke-miterlimit="10" stroke-width="2"/>
      </g>
      <path id="path1876" d="M285.742-559.322h-4.376v-7.733h4.376Z" transform="translate(-258.281 576.54)" fill="none" stroke="#9f0925" stroke-linejoin="round" stroke-miterlimit="10" stroke-width="2"/>
      <g id="g1878" transform="translate(34.297 23.782)">
        <path id="path1880" d="M0-78.932v-7.055" transform="translate(0 85.986)" fill="none" stroke="#9f0925" stroke-linejoin="round" stroke-miterlimit="10" stroke-width="2"/>
      </g>
      <g id="g1882" transform="translate(34.297 12.047)">
        <path id="path1884" d="M0-44.772v-4" transform="translate(0 48.773)" fill="none" stroke="#9f0925" stroke-linecap="round" stroke-linejoin="round" stroke-miterlimit="10" stroke-width="2"/>
      </g>
      <path id="path1886" d="M395.741-479.322h-4.376v-7.733h4.376Z" transform="translate(-359.256 503.104)" fill="none" stroke="#9f0925" stroke-linejoin="round" stroke-miterlimit="10" stroke-width="2"/>
      <g id="g1888" transform="translate(43.322 19.406)">
        <path id="path1890" d="M0-83.864v-7.5" transform="translate(0 91.36)" fill="none" stroke="#9f0925" stroke-linejoin="round" stroke-miterlimit="10" stroke-width="2"/>
      </g>
      <g id="g1892" transform="translate(43.322 7.672)">
        <path id="path1894" d="M0-44.772v-4" transform="translate(0 48.773)" fill="none" stroke="#9f0925" stroke-linecap="round" stroke-linejoin="round" stroke-miterlimit="10" stroke-width="2"/>
      </g>
      <path id="path1896" d="M505.741-532.655h-4.376v-7.733h4.376Z" transform="translate(-460.231 552.061)" fill="none" stroke="#9f0925" stroke-linejoin="round" stroke-miterlimit="10" stroke-width="2"/>
      <g id="g1898" transform="translate(0 0)">
        <g id="g1900" clip-path="url(#clip-path)">
          <g id="g1906" transform="translate(31.289 26.899)">
            <path id="path1908" d="M-264.34-132.169a11.813,11.813,0,0,1-11.813,11.813,11.813,11.813,0,0,1-11.813-11.813,11.813,11.813,0,0,1,11.813-11.813A11.813,11.813,0,0,1-264.34-132.169Z" transform="translate(287.966 143.982)" fill="none" stroke="#9f0925" stroke-linejoin="round" stroke-miterlimit="10" stroke-width="2"/>
          </g>
          <g id="g1910" transform="translate(39.993 35.604)">
            <path id="path1912" d="M-69.56,0l-6.217,6.217" transform="translate(75.777)" fill="none" stroke="#9f0925" stroke-linecap="round" stroke-linejoin="round" stroke-miterlimit="10" stroke-width="2"/>
          </g>
          <g id="g1914" transform="translate(45.102 40.712)">
            <path id="path1916" d="M-20.894-20.894a1.094,1.094,0,0,1-1.547,0,1.094,1.094,0,0,1,0-1.547,1.094,1.094,0,0,1,1.547,0,1.094,1.094,0,0,1,0,1.547" transform="translate(22.761 22.761)" fill="none"/>
          </g>
          <g id="g1918" transform="translate(38.914 34.524)">
            <path id="path1920" d="M-20.894-20.894a1.094,1.094,0,0,1-1.547,0,1.094,1.094,0,0,1,0-1.547,1.094,1.094,0,0,1,1.547,0,1.094,1.094,0,0,1,0,1.547" transform="translate(22.761 22.761)" fill="none"/>
          </g>
          <g id="g1922" transform="translate(16.511 45.285)">
            <path id="path1924" d="M-12.239,0a1.094,1.094,0,0,0-1.094,1.094,1.094,1.094,0,0,0,1.094,1.094,1.094,1.094,0,0,0,1.094-1.094A1.094,1.094,0,0,0-12.239,0" transform="translate(13.333 0)" fill="none"/>
          </g>
        </g>
      </g>
    </g>
  </g>
</svg>
