<svg xmlns="http://www.w3.org/2000/svg" xmlns:xlink="http://www.w3.org/1999/xlink" width="100" height="100" viewBox="0 0 100 100">
  <defs>
    <clipPath id="clip-path">
      <path id="path1089" d="M0-682.665H56.009v56.009H0Z" transform="translate(0 682.665)" fill="none"/>
    </clipPath>
  </defs>
  <g id="Grupo_969081" data-name="Grupo 969081" transform="translate(3677 8218)">
    <circle id="Elipse_4889" data-name="Elipse 4889" cx="50" cy="50" r="50" transform="translate(-3677 -8218)" fill="#b3eeef"/>
    <g id="g1083" transform="translate(-3655 -8196)">
      <g id="g1085" transform="translate(0 0)">
        <g id="g1087" clip-path="url(#clip-path)">
          <g id="g1093" transform="translate(11.393 10.454)">
            <path id="path1095" d="M-297.294,0a15.161,15.161,0,0,1-2.4,4.613,14.844,14.844,0,0,1-4.9,4.105c-2.563,1.351-5.531,2.961-5.979,6.009-.448-3.048-3.416-4.658-5.979-6.009a14.845,14.845,0,0,1-4.9-4.105A15.162,15.162,0,0,1-323.866,0Z" transform="translate(323.866 0)" fill="none" stroke="#9f0925" stroke-linejoin="round" stroke-miterlimit="10" stroke-width="2"/>
          </g>
          <g id="g1097" transform="translate(6.326 6.078)">
            <path id="path1099" d="M-398.929-421.573a18.815,18.815,0,0,1,1.048,6.174h-36.7a19.392,19.392,0,0,1,11.639-17.638,4.669,4.669,0,0,0,2.07-1.715,4.65,4.65,0,0,0,.777-2.573,4.658,4.658,0,0,0-2.846-4.288,19.392,19.392,0,0,1-11.639-17.638h36.7a19.391,19.391,0,0,1-11.638,17.638,4.669,4.669,0,0,0-2.07,1.715,4.641,4.641,0,0,0-.778,2.573,4.659,4.659,0,0,0,2.848,4.288,18,18,0,0,1,1.786.876" transform="translate(434.584 459.252)" fill="none" stroke="#9f0925" stroke-linejoin="round" stroke-miterlimit="10" stroke-width="2"/>
          </g>
          <g id="g1101" transform="translate(11.891 40.764)">
            <path id="path1103" d="M-286.15-102.568c-.4-1.528-1.133-3.232-3.007-3.721-5.131-1.339-9.021-4.364-9.781-5.447-.76,1.083-4.65,4.108-9.781,5.447-1.874.489-2.609,2.192-3.006,3.72Z" transform="translate(311.726 111.736)" fill="none" stroke="#9f0925" stroke-linejoin="round" stroke-miterlimit="10" stroke-width="2"/>
          </g>
          <g id="g1105" transform="translate(4.421 1.094)">
            <path id="path1107" d="M-281.726,0h15.336V4.984h-40.516V0h15.335" transform="translate(306.906)" fill="none" stroke="#9f0925" stroke-linecap="round" stroke-linejoin="round" stroke-miterlimit="10" stroke-width="2"/>
          </g>
          <path id="path1109" d="M53.875-69.091H94.391v-4.983H53.875Z" transform="translate(-49.454 124.006)" fill="none" stroke="#9f0925" stroke-linejoin="round" stroke-miterlimit="10" stroke-width="2"/>
          <g id="g1111" transform="translate(24.678 29.556)">
            <path id="path1113" d="M0-12.445v-1.112" transform="translate(0 13.557)" fill="none" stroke="#9f0925" stroke-linecap="round" stroke-linejoin="round" stroke-miterlimit="10" stroke-width="2"/>
          </g>
          <g id="g1115" transform="translate(24.678 35.276)">
            <path id="path1117" d="M0-12.444v-1.112" transform="translate(0 13.556)" fill="none" stroke="#9f0925" stroke-linecap="round" stroke-linejoin="round" stroke-miterlimit="10" stroke-width="2"/>
          </g>
          <g id="g1119" transform="translate(33.081 25.257)">
            <path id="path1121" d="M-207.074-103.538a9.254,9.254,0,0,1-9.254,9.254,9.254,9.254,0,0,1-9.254-9.254,9.254,9.254,0,0,1,9.254-9.254A9.254,9.254,0,0,1-207.074-103.538Z" transform="translate(225.582 112.792)" fill="none" stroke="#9f0925" stroke-linejoin="round" stroke-miterlimit="10" stroke-width="2"/>
          </g>
          <g id="g1123" transform="translate(39.535 31.71)">
            <path id="path1125" d="M-62.657,0l-5.6,5.6" transform="translate(68.257)" fill="none" stroke="#9f0925" stroke-linecap="round" stroke-linejoin="round" stroke-miterlimit="10" stroke-width="2"/>
          </g>
          <g id="g1127" transform="translate(38.147 30.322)">
            <path id="path1129" d="M-20.895-20.894a1.094,1.094,0,0,1-1.547,0,1.094,1.094,0,0,1,0-1.547,1.094,1.094,0,0,1,1.547,0,1.094,1.094,0,0,1,0,1.547" transform="translate(22.762 22.761)" fill="none"/>
          </g>
          <g id="g1131" transform="translate(44.335 36.511)">
            <path id="path1133" d="M-20.895-20.894a1.094,1.094,0,0,1-1.547,0,1.094,1.094,0,0,1,0-1.547,1.094,1.094,0,0,1,1.547,0,1.094,1.094,0,0,1,0,1.547" transform="translate(22.762 22.761)" fill="none"/>
          </g>
          <g id="g1135" transform="translate(23.584 0)">
            <path id="path1137" d="M-12.239-24.479a1.094,1.094,0,0,0,1.094-1.094,1.094,1.094,0,0,0-1.094-1.094,1.094,1.094,0,0,0-1.094,1.094,1.094,1.094,0,0,0,1.094,1.094" transform="translate(13.333 26.667)" fill="none"/>
          </g>
        </g>
      </g>
    </g>
  </g>
</svg>
